<svg width="751" height="751" viewBox="0 0 751 751" fill="none" xmlns="http://www.w3.org/2000/svg">
<g clip-path="url(#clip0_36_2)">
<path d="M4.2 656V209H66.6V281L57 275.6C59.4 263.6 66.2 252.2 77.4 241.4C88.6 230.2 102.2 221.2 118.2 214.4C134.6 207.2 151.4 203.6 168.6 203.6C197 203.6 222.2 210.6 244.2 224.6C266.2 238.6 283.6 257.8 296.4 282.2C309.2 306.6 315.6 334.6 315.6 366.2C315.6 397.4 309.2 425.4 296.4 450.2C284 474.6 266.8 494 244.8 508.4C222.8 522.4 198 529.4 170.4 529.4C152 529.4 134.2 525.8 117 518.6C99.8 511 85.2 501.4 73.2 489.8C61.2 478.2 53.8 466.2 51 453.8L66.6 445.4V656H4.2ZM160.2 472.4C178.6 472.4 195 467.8 209.4 458.6C223.8 449.4 235.2 436.8 243.6 420.8C252 404.8 256.2 386.6 256.2 366.2C256.2 345.8 252 327.8 243.6 312.2C235.6 296.2 224.4 283.6 210 274.4C195.6 265.2 179 260.6 160.2 260.6C141.4 260.6 124.8 265.2 110.4 274.4C96 283.2 84.6 295.6 76.2 311.6C67.8 327.6 63.6 345.8 63.6 366.2C63.6 386.6 67.8 404.8 76.2 420.8C84.6 436.8 96 449.4 110.4 458.6C124.8 467.8 141.4 472.4 160.2 472.4Z" fill="#073B4C"/>
<path d="M354.516 524L517.116 104H583.116L744.516 524H675.516L579.516 270.8C578.316 268 575.916 261.2 572.316 250.4C569.116 239.6 565.316 227.6 560.916 214.4C556.516 201.2 552.516 189.2 548.916 178.4C545.316 167.2 542.916 160 541.716 156.8L555.516 156.2C553.116 163 550.116 171.6 546.516 182C543.316 192.4 539.716 203.4 535.716 215C532.116 226.6 528.516 237.6 524.916 248C521.316 258 518.316 266.4 515.916 273.2L420.516 524H354.516ZM426.516 419.6L450.516 357.2H641.316L668.916 419.6H426.516Z" fill="#15CB9E"/>
<rect x="343" y="621" width="408" height="37" rx="18.5" fill="#15CB9E"/>
</g>
<defs>
<clipPath id="clip0_36_2">
<rect width="751" height="751" fill="white"/>
</clipPath>
</defs>
</svg>
