<svg version="1.1" viewBox="0.0 0.0 960.0 540.0" fill="none" stroke="none" stroke-linecap="square" stroke-miterlimit="10" xmlns:xlink="http://www.w3.org/1999/xlink" xmlns="http://www.w3.org/2000/svg"><clipPath id="g30ac19b7339_0_16.0"><path d="m0 0l960.0 0l0 540.0l-960.0 0l0 -540.0z" clip-rule="nonzero"/></clipPath><g clip-path="url(#g30ac19b7339_0_16.0)"><path fill="#ffffff" fill-opacity="0.0" d="m0 0l960.0 0l0 540.0l-960.0 0z" fill-rule="evenodd"/><defs><linearGradient id="g30ac19b7339_0_16.1" gradientUnits="userSpaceOnUse" gradientTransform="matrix(12.110147639946359 0.0 0.0 12.110147639946359 0.0 0.0)" spreadMethod="pad" x1="77.46827362174787" y1="44.59117737661275" x2="77.4684023071278" y2="32.48102973735011"><stop offset="0.0" stop-color="#92e8d3" stop-opacity="0.0"/><stop offset="1.0" stop-color="#92e8d3"/></linearGradient></defs><path fill="url(#g30ac19b7339_0_16.1)" d="m23.475077 426.26834l0 0c0 18.180267 204.75745 32.918274 457.3386 32.918274c252.58112 0 457.33856 -14.738007 457.33856 -32.918274l0 80.80908c0 18.180267 -204.75745 32.918304 -457.33856 32.918304c-252.58113 0 -457.3386 -14.738037 -457.3386 -32.918304z" fill-rule="evenodd"/><defs><linearGradient id="g30ac19b7339_0_16.2" gradientUnits="userSpaceOnUse" gradientTransform="matrix(12.110147639946359 0.0 0.0 12.110147639946359 0.0 0.0)" spreadMethod="pad" x1="77.46827362174787" y1="44.59117737661275" x2="77.4684023071278" y2="32.48102973735011"><stop offset="0.0" stop-color="#92e8d3" stop-opacity="0.0"/><stop offset="1.0" stop-color="#92e8d3"/></linearGradient></defs><path fill="url(#g30ac19b7339_0_16.2)" d="m23.475077 426.26834l0 0c0 -18.180267 204.75745 -32.918274 457.3386 -32.918274c252.58112 0 457.33856 14.738007 457.33856 32.918274l0 0c0 18.180267 -204.75745 32.918274 -457.33856 32.918274c-252.58113 0 -457.3386 -14.738007 -457.3386 -32.918274z" fill-rule="evenodd"/><path fill="#000000" fill-opacity="0.0" d="m938.1522 426.26834l0 0c0 18.180267 -204.75745 32.918274 -457.33856 32.918274c-252.58113 0 -457.3386 -14.738007 -457.3386 -32.918274l0 0c0 -18.180267 204.75745 -32.918274 457.3386 -32.918274c252.58112 0 457.33856 14.738007 457.33856 32.918274l0 80.80908c0 18.180267 -204.75745 32.918304 -457.33856 32.918304c-252.58113 0 -457.3386 -14.738037 -457.3386 -32.918304l0 -80.80908" fill-rule="evenodd"/><path fill="#ffffff" fill-opacity="0.4" d="m23.475077 426.26834l0 0c0 -18.180267 204.75745 -32.918274 457.3386 -32.918274c252.58112 0 457.33856 14.738007 457.33856 32.918274l0 0c0 18.180267 -204.75745 32.918274 -457.33856 32.918274c-252.58113 0 -457.3386 -14.738007 -457.3386 -32.918274z" fill-rule="evenodd"/><defs><radialGradient id="g30ac19b7339_0_16.3" gradientUnits="userSpaceOnUse" gradientTransform="matrix(21.412928161605276 0.0 0.0 21.412928161605276 0.0 0.0)" spreadMethod="pad" cx="22.454362857985018" cy="19.90167801239452" fx="22.454362857985018" fy="19.90167801239452" r="21.412927627563477"><stop offset="0.0" stop-color="#acf1df"/><stop offset="1.0" stop-color="#acf1df"/></radialGradient></defs><path fill="url(#g30ac19b7339_0_16.3)" d="m23.475077 426.1532l0 0c0 -8.699921 48.183746 -17.043549 133.95137 -23.195312c85.76761 -6.1517944 202.09348 -9.607819 323.3872 -9.607819l0 0c252.58112 0 457.33856 14.686462 457.33856 32.80313l0 0c0 18.116669 -204.75745 32.80316 -457.33856 32.80316l0 0c-252.58113 0 -457.3386 -14.686493 -457.3386 -32.80316z" fill-rule="evenodd"/><path stroke="#ffffff" stroke-width="4.0" stroke-linejoin="round" stroke-linecap="butt" d="m23.475077 426.1532l0 0c0 -8.699921 48.183746 -17.043549 133.95137 -23.195312c85.76761 -6.1517944 202.09348 -9.607819 323.3872 -9.607819l0 0c252.58112 0 457.33856 14.686462 457.33856 32.80313l0 0c0 18.116669 -204.75745 32.80316 -457.33856 32.80316l0 0c-252.58113 0 -457.3386 -14.686493 -457.3386 -32.80316z" fill-rule="evenodd"/><path fill="#49cead" d="m76.747284 382.04526l-20.345001 0c-9.1552734E-5 0 -1.7929077E-4 3.0517578E-5 -2.4032593E-4 9.1552734E-5c-6.484985E-5 6.1035156E-5 -9.918213E-5 1.5258789E-4 -9.918213E-5 2.4414062E-4l3.3950806E-4 23.320526l0 0c0 11.236237 9.108765 20.345001 20.345001 20.345001l20.345001 0l0 0c1.9073486E-4 0 3.3569336E-4 -1.5258789E-4 3.3569336E-4 -3.3569336E-4l-3.3569336E-4 -23.320526l0 0c0 -11.236237 -9.108765 -20.345001 -20.345001 -20.345001z" fill-rule="evenodd"/><path fill="#49cead" d="m116.1379 393.52133l12.502083 0c4.5776367E-5 0 1.0681152E-4 3.0517578E-5 1.373291E-4 6.1035156E-5c4.5776367E-5 3.0517578E-5 6.1035156E-5 9.1552734E-5 6.1035156E-5 1.5258789E-4l-1.9836426E-4 14.33078l0 0c0 6.9046936 -5.597374 12.502075 -12.502083 12.502075l-12.502083 0l0 0c-1.1444092E-4 0 -2.0599365E-4 -9.1552734E-5 -2.0599365E-4 -2.1362305E-4l2.0599365E-4 -14.33078l0 0c0 -6.9046936 5.597374 -12.502075 12.502083 -12.502075z" fill-rule="evenodd"/><path fill="#49cead" d="m108.230125 376.13385l5.5288696 0c2.2888184E-5 0 4.5776367E-5 3.0517578E-5 6.866455E-5 3.0517578E-5c1.5258789E-5 3.0517578E-5 2.2888184E-5 6.1035156E-5 2.2888184E-5 6.1035156E-5l-9.1552734E-5 6.3347473c0 3.0534973 -2.475357 5.5288696 -5.5288696 5.5288696l-5.5288696 0l0 0c-5.340576E-5 0 -9.1552734E-5 -3.0517578E-5 -9.1552734E-5 -9.1552734E-5l9.1552734E-5 -6.3347473l0 0c0 -3.0534973 2.475357 -5.5288696 5.5288696 -5.5288696z" fill-rule="evenodd"/><path fill="#000000" fill-opacity="0.0" d="m88.0061 418.18387c0 -6.7055054 -6.0775146 -10.058258 -12.155029 -13.411011c-6.0775146 -3.3527527 -12.155029 -6.705475 -12.155029 -13.41098" fill-rule="evenodd"/><path stroke="#acf1df" stroke-width="2.0" stroke-linejoin="round" stroke-linecap="butt" d="m88.0061 418.18387c0 -6.7055054 -6.0775146 -10.058258 -12.155029 -13.411011c-6.0775146 -3.3527527 -12.155029 -6.705475 -12.155029 -13.41098" fill-rule="evenodd"/><path fill="#000000" fill-opacity="0.0" d="m121.172295 401.0767c0 3.2469788 -2.9730072 4.8704834 -5.946022 6.4939575c-2.9730072 1.6235046 -5.9460144 3.2470093 -5.9460144 6.493988" fill-rule="evenodd"/><path stroke="#acf1df" stroke-width="2.0" stroke-linejoin="round" stroke-linecap="butt" d="m121.172295 401.0767c0 3.2469788 -2.9730072 4.8704834 -5.946022 6.4939575c-2.9730072 1.6235046 -5.9460144 3.2470093 -5.9460144 6.493988" fill-rule="evenodd"/><defs><linearGradient id="g30ac19b7339_0_16.4" gradientUnits="userSpaceOnUse" gradientTransform="matrix(13.354052143878176 0.0 0.0 13.354052143878176 0.0 0.0)" spreadMethod="pad" x1="11.007076288037645" y1="32.15322634615507" x2="24.36112843191582" y2="32.15322634615507"><stop offset="0.0" stop-color="#00cfc8"/><stop offset="1.0" stop-color="#6d9eeb"/></linearGradient></defs><path fill="url(#g30ac19b7339_0_16.4)" d="m146.98907 367.4624l0 0c0 6.2490234 39.920685 11.31488 89.165344 11.31488c49.24466 0 89.165344 -5.065857 89.165344 -11.31488l0 50.59857c0 6.249054 -39.920685 11.31488 -89.165344 11.31488c-49.24466 0 -89.165344 -5.0658264 -89.165344 -11.31488z" fill-rule="evenodd"/><defs><linearGradient id="g30ac19b7339_0_16.5" gradientUnits="userSpaceOnUse" gradientTransform="matrix(13.354052143878176 0.0 0.0 13.354052143878176 0.0 0.0)" spreadMethod="pad" x1="11.007076288037645" y1="32.15322634615507" x2="24.36112843191582" y2="32.15322634615507"><stop offset="0.0" stop-color="#00cfc8"/><stop offset="1.0" stop-color="#6d9eeb"/></linearGradient></defs><path fill="url(#g30ac19b7339_0_16.5)" d="m146.98907 367.4624l0 0c0 -6.249054 39.920685 -11.31488 89.165344 -11.31488c49.24466 0 89.165344 5.0658264 89.165344 11.31488l0 0c0 6.2490234 -39.920685 11.31488 -89.165344 11.31488c-49.24466 0 -89.165344 -5.065857 -89.165344 -11.31488z" fill-rule="evenodd"/><path fill="#000000" fill-opacity="0.0" d="m325.31976 367.4624l0 0c0 6.2490234 -39.920685 11.31488 -89.165344 11.31488c-49.24466 0 -89.165344 -5.065857 -89.165344 -11.31488l0 0c0 -6.249054 39.920685 -11.31488 89.165344 -11.31488c49.24466 0 89.165344 5.0658264 89.165344 11.31488l0 50.59857c0 6.249054 -39.920685 11.31488 -89.165344 11.31488c-49.24466 0 -89.165344 -5.0658264 -89.165344 -11.31488l0 -50.59857" fill-rule="evenodd"/><path fill="#ffffff" fill-opacity="0.4" d="m146.98907 367.4624l0 0c0 -6.249054 39.920685 -11.31488 89.165344 -11.31488c49.24466 0 89.165344 5.0658264 89.165344 11.31488l0 0c0 6.2490234 -39.920685 11.31488 -89.165344 11.31488c-49.24466 0 -89.165344 -5.065857 -89.165344 -11.31488z" fill-rule="evenodd"/><defs><linearGradient id="g30ac19b7339_0_16.6" gradientUnits="userSpaceOnUse" gradientTransform="matrix(13.35407210563801 0.0 0.0 13.35407210563801 0.0 0.0)" spreadMethod="pad" x1="24.361131939871107" y1="21.71889419493301" x2="11.007059834583474" y2="21.718797458095104"><stop offset="0.0" stop-color="#63e4e7" stop-opacity="0.6"/><stop offset="0.5" stop-color="#58dbce" stop-opacity="0.5254902"/><stop offset="1.0" stop-color="#49cead" stop-opacity="0.4509804"/></linearGradient></defs><path fill="url(#g30ac19b7339_0_16.6)" d="m146.98907 301.35056l0 0c0 6.2490234 39.920685 11.31488 89.165344 11.31488c49.24466 0 89.165344 -5.065857 89.165344 -11.31488l0 50.598602c0 6.2490234 -39.920685 11.31488 -89.165344 11.31488c-49.24466 0 -89.165344 -5.065857 -89.165344 -11.31488z" fill-rule="evenodd"/><defs><linearGradient id="g30ac19b7339_0_16.7" gradientUnits="userSpaceOnUse" gradientTransform="matrix(13.35407210563801 0.0 0.0 13.35407210563801 0.0 0.0)" spreadMethod="pad" x1="24.361131939871107" y1="21.71889419493301" x2="11.007059834583474" y2="21.718797458095104"><stop offset="0.0" stop-color="#63e4e7" stop-opacity="0.6"/><stop offset="0.5" stop-color="#58dbce" stop-opacity="0.5254902"/><stop offset="1.0" stop-color="#49cead" stop-opacity="0.4509804"/></linearGradient></defs><path fill="url(#g30ac19b7339_0_16.7)" d="m146.98907 301.35056l0 0c0 -6.2490234 39.920685 -11.31488 89.165344 -11.31488c49.24466 0 89.165344 5.065857 89.165344 11.31488l0 0c0 6.2490234 -39.920685 11.31488 -89.165344 11.31488c-49.24466 0 -89.165344 -5.065857 -89.165344 -11.31488z" fill-rule="evenodd"/><path fill="#000000" fill-opacity="0.0" d="m325.31976 301.35056l0 0c0 6.2490234 -39.920685 11.31488 -89.165344 11.31488c-49.24466 0 -89.165344 -5.065857 -89.165344 -11.31488l0 0c0 -6.2490234 39.920685 -11.31488 89.165344 -11.31488c49.24466 0 89.165344 5.065857 89.165344 11.31488l0 50.598602c0 6.2490234 -39.920685 11.31488 -89.165344 11.31488c-49.24466 0 -89.165344 -5.065857 -89.165344 -11.31488l0 -50.598602" fill-rule="evenodd"/><path fill="#ffffff" fill-opacity="0.4" d="m146.98907 301.35056l0 0c0 -6.2490234 39.920685 -11.31488 89.165344 -11.31488c49.24466 0 89.165344 5.065857 89.165344 11.31488l0 0c0 6.2490234 -39.920685 11.31488 -89.165344 11.31488c-49.24466 0 -89.165344 -5.065857 -89.165344 -11.31488z" fill-rule="evenodd"/><defs><linearGradient id="g30ac19b7339_0_16.8" gradientUnits="userSpaceOnUse" gradientTransform="matrix(13.35407210563801 0.0 0.0 13.35407210563801 0.0 0.0)" spreadMethod="pad" x1="24.361131939871107" y1="16.768206860991686" x2="11.007059834583474" y2="16.76811012415378"><stop offset="0.0" stop-color="#63e4e7" stop-opacity="0.6"/><stop offset="0.5" stop-color="#58dbce" stop-opacity="0.5254902"/><stop offset="1.0" stop-color="#49cead" stop-opacity="0.4509804"/></linearGradient></defs><path fill="url(#g30ac19b7339_0_16.8)" d="m146.98907 235.23871l0 0c0 6.2490387 39.920685 11.31488 89.165344 11.31488c49.24466 0 89.165344 -5.0658417 89.165344 -11.31488l0 50.598602c0 6.2490234 -39.920685 11.31488 -89.165344 11.31488c-49.24466 0 -89.165344 -5.065857 -89.165344 -11.31488z" fill-rule="evenodd"/><defs><linearGradient id="g30ac19b7339_0_16.9" gradientUnits="userSpaceOnUse" gradientTransform="matrix(13.35407210563801 0.0 0.0 13.35407210563801 0.0 0.0)" spreadMethod="pad" x1="24.361131939871107" y1="16.768206860991686" x2="11.007059834583474" y2="16.76811012415378"><stop offset="0.0" stop-color="#63e4e7" stop-opacity="0.6"/><stop offset="0.5" stop-color="#58dbce" stop-opacity="0.5254902"/><stop offset="1.0" stop-color="#49cead" stop-opacity="0.4509804"/></linearGradient></defs><path fill="url(#g30ac19b7339_0_16.9)" d="m146.98907 235.23871l0 0c0 -6.2490234 39.920685 -11.314865 89.165344 -11.314865c49.24466 0 89.165344 5.0658417 89.165344 11.314865l0 0c0 6.2490387 -39.920685 11.31488 -89.165344 11.31488c-49.24466 0 -89.165344 -5.0658417 -89.165344 -11.31488z" fill-rule="evenodd"/><path fill="#000000" fill-opacity="0.0" d="m325.31976 235.23871l0 0c0 6.2490387 -39.920685 11.31488 -89.165344 11.31488c-49.24466 0 -89.165344 -5.0658417 -89.165344 -11.31488l0 0c0 -6.2490234 39.920685 -11.314865 89.165344 -11.314865c49.24466 0 89.165344 5.0658417 89.165344 11.314865l0 50.598602c0 6.2490234 -39.920685 11.31488 -89.165344 11.31488c-49.24466 0 -89.165344 -5.065857 -89.165344 -11.31488l0 -50.598602" fill-rule="evenodd"/><path fill="#ffffff" fill-opacity="0.4" d="m146.98907 235.23871l0 0c0 -6.2490234 39.920685 -11.314865 89.165344 -11.314865c49.24466 0 89.165344 5.0658417 89.165344 11.314865l0 0c0 6.2490387 -39.920685 11.31488 -89.165344 11.31488c-49.24466 0 -89.165344 -5.0658417 -89.165344 -11.31488z" fill-rule="evenodd"/><defs><linearGradient id="g30ac19b7339_0_16.10" gradientUnits="userSpaceOnUse" gradientTransform="matrix(13.354071337885308 0.0 0.0 13.354071337885308 0.0 0.0)" spreadMethod="pad" x1="24.361131804936644" y1="11.817519438710852" x2="11.007060467401717" y2="11.817422701867384"><stop offset="0.0" stop-color="#63e4e7" stop-opacity="0.6"/><stop offset="0.5" stop-color="#58dbce" stop-opacity="0.5254902"/><stop offset="1.0" stop-color="#49cead" stop-opacity="0.4509804"/></linearGradient></defs><path fill="url(#g30ac19b7339_0_16.10)" d="m146.98907 169.12688l0 0c0 6.2490387 39.920685 11.31488 89.165344 11.31488c49.24466 0 89.165344 -5.0658417 89.165344 -11.31488l0 50.598587c0 6.2490387 -39.920685 11.31488 -89.165344 11.31488c-49.24466 0 -89.165344 -5.0658417 -89.165344 -11.31488z" fill-rule="evenodd"/><defs><linearGradient id="g30ac19b7339_0_16.11" gradientUnits="userSpaceOnUse" gradientTransform="matrix(13.354071337885308 0.0 0.0 13.354071337885308 0.0 0.0)" spreadMethod="pad" x1="24.361131804936644" y1="11.817519438710852" x2="11.007060467401717" y2="11.817422701867384"><stop offset="0.0" stop-color="#63e4e7" stop-opacity="0.6"/><stop offset="0.5" stop-color="#58dbce" stop-opacity="0.5254902"/><stop offset="1.0" stop-color="#49cead" stop-opacity="0.4509804"/></linearGradient></defs><path fill="url(#g30ac19b7339_0_16.11)" d="m146.98907 169.12688l0 0c0 -6.2490387 39.920685 -11.31488 89.165344 -11.31488c49.24466 0 89.165344 5.0658417 89.165344 11.31488l0 0c0 6.2490387 -39.920685 11.31488 -89.165344 11.31488c-49.24466 0 -89.165344 -5.0658417 -89.165344 -11.31488z" fill-rule="evenodd"/><path fill="#000000" fill-opacity="0.0" d="m325.31976 169.12688l0 0c0 6.2490387 -39.920685 11.31488 -89.165344 11.31488c-49.24466 0 -89.165344 -5.0658417 -89.165344 -11.31488l0 0c0 -6.2490387 39.920685 -11.31488 89.165344 -11.31488c49.24466 0 89.165344 5.0658417 89.165344 11.31488l0 50.598587c0 6.2490387 -39.920685 11.31488 -89.165344 11.31488c-49.24466 0 -89.165344 -5.0658417 -89.165344 -11.31488l0 -50.598587" fill-rule="evenodd"/><path fill="#ffffff" fill-opacity="0.4" d="m146.98907 169.12688l0 0c0 -6.2490387 39.920685 -11.31488 89.165344 -11.31488c49.24466 0 89.165344 5.0658417 89.165344 11.31488l0 0c0 6.2490387 -39.920685 11.31488 -89.165344 11.31488c-49.24466 0 -89.165344 -5.0658417 -89.165344 -11.31488z" fill-rule="evenodd"/><defs><linearGradient id="g30ac19b7339_0_16.12" gradientUnits="userSpaceOnUse" gradientTransform="matrix(13.35407210563801 0.0 0.0 13.35407210563801 0.0 0.0)" spreadMethod="pad" x1="24.361131939871107" y1="6.866831425356355" x2="11.007059834583474" y2="6.8667346885184495"><stop offset="0.0" stop-color="#63e4e7" stop-opacity="0.6"/><stop offset="0.5" stop-color="#58dbce" stop-opacity="0.5254902"/><stop offset="1.0" stop-color="#49cead" stop-opacity="0.4509804"/></linearGradient></defs><path fill="url(#g30ac19b7339_0_16.12)" d="m146.98907 103.01504l0 0c0 6.249031 39.920685 11.314873 89.165344 11.314873c49.24466 0 89.165344 -5.0658417 89.165344 -11.314873l0 50.59858c0 6.2490387 -39.920685 11.31488 -89.165344 11.31488c-49.24466 0 -89.165344 -5.0658417 -89.165344 -11.31488z" fill-rule="evenodd"/><defs><linearGradient id="g30ac19b7339_0_16.13" gradientUnits="userSpaceOnUse" gradientTransform="matrix(13.35407210563801 0.0 0.0 13.35407210563801 0.0 0.0)" spreadMethod="pad" x1="24.361131939871107" y1="6.866831425356355" x2="11.007059834583474" y2="6.8667346885184495"><stop offset="0.0" stop-color="#63e4e7" stop-opacity="0.6"/><stop offset="0.5" stop-color="#58dbce" stop-opacity="0.5254902"/><stop offset="1.0" stop-color="#49cead" stop-opacity="0.4509804"/></linearGradient></defs><path fill="url(#g30ac19b7339_0_16.13)" d="m146.98907 103.01504l0 0c0 -6.2490387 39.920685 -11.31488 89.165344 -11.31488c49.24466 0 89.165344 5.0658417 89.165344 11.31488l0 0c0 6.249031 -39.920685 11.314873 -89.165344 11.314873c-49.24466 0 -89.165344 -5.0658417 -89.165344 -11.314873z" fill-rule="evenodd"/><path fill="#000000" fill-opacity="0.0" d="m325.31976 103.01504l0 0c0 6.249031 -39.920685 11.314873 -89.165344 11.314873c-49.24466 0 -89.165344 -5.0658417 -89.165344 -11.314873l0 0c0 -6.2490387 39.920685 -11.31488 89.165344 -11.31488c49.24466 0 89.165344 5.0658417 89.165344 11.31488l0 50.59858c0 6.2490387 -39.920685 11.31488 -89.165344 11.31488c-49.24466 0 -89.165344 -5.0658417 -89.165344 -11.31488l0 -50.59858" fill-rule="evenodd"/><path fill="#ffffff" fill-opacity="0.4" d="m146.98907 103.01504l0 0c0 -6.2490387 39.920685 -11.31488 89.165344 -11.31488c49.24466 0 89.165344 5.0658417 89.165344 11.31488l0 0c0 6.249031 -39.920685 11.314873 -89.165344 11.314873c-49.24466 0 -89.165344 -5.0658417 -89.165344 -11.314873z" fill-rule="evenodd"/><defs><linearGradient id="g30ac19b7339_0_16.14" gradientUnits="userSpaceOnUse" gradientTransform="matrix(13.35407210563801 0.0 0.0 13.35407210563801 0.0 0.0)" spreadMethod="pad" x1="24.361131939871107" y1="1.916143323662349" x2="11.007059834583474" y2="1.9160465868244434"><stop offset="0.0" stop-color="#63e4e7" stop-opacity="0.6"/><stop offset="0.5" stop-color="#58dbce" stop-opacity="0.5254902"/><stop offset="1.0" stop-color="#49cead" stop-opacity="0.4509804"/></linearGradient></defs><path fill="url(#g30ac19b7339_0_16.14)" d="m146.98907 36.903194l0 0c0 6.249035 39.920685 11.314877 89.165344 11.314877c49.24466 0 89.165344 -5.0658417 89.165344 -11.314877l0 50.59859c0 6.249031 -39.920685 11.314873 -89.165344 11.314873c-49.24466 0 -89.165344 -5.0658417 -89.165344 -11.314873z" fill-rule="evenodd"/><defs><linearGradient id="g30ac19b7339_0_16.15" gradientUnits="userSpaceOnUse" gradientTransform="matrix(13.35407210563801 0.0 0.0 13.35407210563801 0.0 0.0)" spreadMethod="pad" x1="24.361131939871107" y1="1.916143323662349" x2="11.007059834583474" y2="1.9160465868244434"><stop offset="0.0" stop-color="#63e4e7" stop-opacity="0.6"/><stop offset="0.5" stop-color="#58dbce" stop-opacity="0.5254902"/><stop offset="1.0" stop-color="#49cead" stop-opacity="0.4509804"/></linearGradient></defs><path fill="url(#g30ac19b7339_0_16.15)" d="m146.98907 36.903194l0 0c0 -6.249035 39.920685 -11.314878 89.165344 -11.314878c49.24466 0 89.165344 5.0658436 89.165344 11.314878l0 0c0 6.249035 -39.920685 11.314877 -89.165344 11.314877c-49.24466 0 -89.165344 -5.0658417 -89.165344 -11.314877z" fill-rule="evenodd"/><path fill="#000000" fill-opacity="0.0" d="m325.31976 36.903194l0 0c0 6.249035 -39.920685 11.314877 -89.165344 11.314877c-49.24466 0 -89.165344 -5.0658417 -89.165344 -11.314877l0 0c0 -6.249035 39.920685 -11.314878 89.165344 -11.314878c49.24466 0 89.165344 5.0658436 89.165344 11.314878l0 50.59859c0 6.249031 -39.920685 11.314873 -89.165344 11.314873c-49.24466 0 -89.165344 -5.0658417 -89.165344 -11.314873l0 -50.59859" fill-rule="evenodd"/><path fill="#ffffff" fill-opacity="0.4" d="m146.98907 36.903194l0 0c0 -6.249035 39.920685 -11.314878 89.165344 -11.314878c49.24466 0 89.165344 5.0658436 89.165344 11.314878l0 0c0 6.249035 -39.920685 11.314877 -89.165344 11.314877c-49.24466 0 -89.165344 -5.0658417 -89.165344 -11.314877z" fill-rule="evenodd"/><defs><linearGradient id="g30ac19b7339_0_16.16" gradientUnits="userSpaceOnUse" gradientTransform="matrix(8.272920370215404 0.0 0.0 8.272920370215404 0.0 0.0)" spreadMethod="pad" x1="32.68204843665486" y1="2.203620111792324E-10" x2="24.409128066656276" y2="-5.989556108285164E-5"><stop offset="0.0" stop-color="#63e4e7" stop-opacity="0.6"/><stop offset="0.5" stop-color="#58dbce" stop-opacity="0.5254902"/><stop offset="1.0" stop-color="#49cead" stop-opacity="0.4509804"/></linearGradient></defs><path fill="url(#g30ac19b7339_0_16.16)" d="m201.93478 6.946749l0 0c0 3.8365836 15.32103 6.946749 34.220474 6.946749c18.899445 0 34.220474 -3.1101656 34.220474 -6.946749l0 22.893904c0 3.8365822 -15.32103 6.9467506 -34.220474 6.9467506c-18.899445 0 -34.220474 -3.1101685 -34.220474 -6.9467506z" fill-rule="evenodd"/><defs><linearGradient id="g30ac19b7339_0_16.17" gradientUnits="userSpaceOnUse" gradientTransform="matrix(8.272920370215404 0.0 0.0 8.272920370215404 0.0 0.0)" spreadMethod="pad" x1="32.68204843665486" y1="2.203620111792324E-10" x2="24.409128066656276" y2="-5.989556108285164E-5"><stop offset="0.0" stop-color="#63e4e7" stop-opacity="0.6"/><stop offset="0.5" stop-color="#58dbce" stop-opacity="0.5254902"/><stop offset="1.0" stop-color="#49cead" stop-opacity="0.4509804"/></linearGradient></defs><path fill="url(#g30ac19b7339_0_16.17)" d="m201.93478 6.946749l0 0c0 -3.8365839 15.32103 -6.946749 34.220474 -6.946749c18.899445 -4.1497787E-15 34.220474 3.1101654 34.220474 6.946749l0 0c0 3.8365836 -15.32103 6.946749 -34.220474 6.946749c-18.899445 0 -34.220474 -3.1101656 -34.220474 -6.946749z" fill-rule="evenodd"/><path fill="#000000" fill-opacity="0.0" d="m270.37573 6.946749l0 0c0 3.8365836 -15.32103 6.946749 -34.220474 6.946749c-18.899445 0 -34.220474 -3.1101656 -34.220474 -6.946749l0 0c0 -3.8365839 15.32103 -6.946749 34.220474 -6.946749c18.899445 -4.1497783E-15 34.220474 3.1101654 34.220474 6.946749l0 22.893904c0 3.8365822 -15.32103 6.9467506 -34.220474 6.9467506c-18.899445 0 -34.220474 -3.1101685 -34.220474 -6.9467506l0 -22.893904" fill-rule="evenodd"/><path fill="#ffffff" fill-opacity="0.4" d="m201.93478 6.946749l0 0c0 -3.8365839 15.32103 -6.946749 34.220474 -6.946749c18.899445 -4.1497787E-15 34.220474 3.1101654 34.220474 6.946749l0 0c0 3.8365836 -15.32103 6.946749 -34.220474 6.946749c-18.899445 0 -34.220474 -3.1101656 -34.220474 -6.946749z" fill-rule="evenodd"/><path fill="#05668d" d="m227.76646 398.93835l16.804337 0l0 5.378113l-16.804337 0z" fill-rule="evenodd"/><path fill="#ffffff" d="m227.76646 69.855034l5.7131042 0l0 -5.7131042l5.378128 0l0 5.7131042l5.7131042 0l0 5.378113l-5.7131042 0l0 5.713112l-5.378128 0l0 -5.713112l-5.7131042 0z" fill-rule="evenodd"/><defs><linearGradient id="g30ac19b7339_0_16.18" gradientUnits="userSpaceOnUse" gradientTransform="matrix(13.354052143878176 0.0 0.0 13.354052143878176 0.0 0.0)" spreadMethod="pad" x1="26.849303430035114" y1="33.14339845997535" x2="40.20335557391329" y2="33.14339845997535"><stop offset="0.0" stop-color="#62e9e6"/><stop offset="1.0" stop-color="#6d9eeb"/></linearGradient></defs><path fill="url(#g30ac19b7339_0_16.18)" d="m358.547 380.6852l0 0c0 6.249054 39.920685 11.31488 89.165344 11.31488c49.24466 0 89.165344 -5.0658264 89.165344 -11.31488l0 50.598602c0 6.2490234 -39.920685 11.31488 -89.165344 11.31488c-49.24466 0 -89.165344 -5.065857 -89.165344 -11.31488z" fill-rule="evenodd"/><defs><linearGradient id="g30ac19b7339_0_16.19" gradientUnits="userSpaceOnUse" gradientTransform="matrix(13.354052143878176 0.0 0.0 13.354052143878176 0.0 0.0)" spreadMethod="pad" x1="26.849303430035114" y1="33.14339845997535" x2="40.20335557391329" y2="33.14339845997535"><stop offset="0.0" stop-color="#62e9e6"/><stop offset="1.0" stop-color="#6d9eeb"/></linearGradient></defs><path fill="url(#g30ac19b7339_0_16.19)" d="m358.547 380.6852l0 0c0 -6.2490234 39.920685 -11.31488 89.165344 -11.31488c49.24466 0 89.165344 5.065857 89.165344 11.31488l0 0c0 6.249054 -39.920685 11.31488 -89.165344 11.31488c-49.24466 0 -89.165344 -5.0658264 -89.165344 -11.31488z" fill-rule="evenodd"/><path fill="#000000" fill-opacity="0.0" d="m536.8777 380.6852l0 0c0 6.249054 -39.920685 11.31488 -89.165344 11.31488c-49.24466 0 -89.165344 -5.0658264 -89.165344 -11.31488l0 0c0 -6.2490234 39.920685 -11.31488 89.165344 -11.31488c49.24466 0 89.165344 5.065857 89.165344 11.31488l0 50.598602c0 6.2490234 -39.920685 11.31488 -89.165344 11.31488c-49.24466 0 -89.165344 -5.065857 -89.165344 -11.31488l0 -50.598602" fill-rule="evenodd"/><path fill="#ffffff" fill-opacity="0.4" d="m358.547 380.6852l0 0c0 -6.2490234 39.920685 -11.31488 89.165344 -11.31488c49.24466 0 89.165344 5.065857 89.165344 11.31488l0 0c0 6.249054 -39.920685 11.31488 -89.165344 11.31488c-49.24466 0 -89.165344 -5.0658264 -89.165344 -11.31488z" fill-rule="evenodd"/><defs><linearGradient id="g30ac19b7339_0_16.20" gradientUnits="userSpaceOnUse" gradientTransform="matrix(13.354052143878176 0.0 0.0 13.354052143878176 0.0 0.0)" spreadMethod="pad" x1="26.849303430035114" y1="28.19270372570112" x2="40.20335557391329" y2="28.19270372570112"><stop offset="0.0" stop-color="#62e9e6"/><stop offset="1.0" stop-color="#6d9eeb"/></linearGradient></defs><path fill="url(#g30ac19b7339_0_16.20)" d="m358.547 314.57336l0 0c0 6.249054 39.920685 11.31488 89.165344 11.31488c49.24466 0 89.165344 -5.0658264 89.165344 -11.31488l0 50.598602c0 6.2490234 -39.920685 11.31488 -89.165344 11.31488c-49.24466 0 -89.165344 -5.065857 -89.165344 -11.31488z" fill-rule="evenodd"/><defs><linearGradient id="g30ac19b7339_0_16.21" gradientUnits="userSpaceOnUse" gradientTransform="matrix(13.354052143878176 0.0 0.0 13.354052143878176 0.0 0.0)" spreadMethod="pad" x1="26.849303430035114" y1="28.19270372570112" x2="40.20335557391329" y2="28.19270372570112"><stop offset="0.0" stop-color="#62e9e6"/><stop offset="1.0" stop-color="#6d9eeb"/></linearGradient></defs><path fill="url(#g30ac19b7339_0_16.21)" d="m358.547 314.57336l0 0c0 -6.2490234 39.920685 -11.31488 89.165344 -11.31488c49.24466 0 89.165344 5.065857 89.165344 11.31488l0 0c0 6.249054 -39.920685 11.31488 -89.165344 11.31488c-49.24466 0 -89.165344 -5.0658264 -89.165344 -11.31488z" fill-rule="evenodd"/><path fill="#000000" fill-opacity="0.0" d="m536.8777 314.57336l0 0c0 6.249054 -39.920685 11.31488 -89.165344 11.31488c-49.24466 0 -89.165344 -5.0658264 -89.165344 -11.31488l0 0c0 -6.2490234 39.920685 -11.31488 89.165344 -11.31488c49.24466 0 89.165344 5.065857 89.165344 11.31488l0 50.598602c0 6.2490234 -39.920685 11.31488 -89.165344 11.31488c-49.24466 0 -89.165344 -5.065857 -89.165344 -11.31488l0 -50.598602" fill-rule="evenodd"/><path fill="#ffffff" fill-opacity="0.4" d="m358.547 314.57336l0 0c0 -6.2490234 39.920685 -11.31488 89.165344 -11.31488c49.24466 0 89.165344 5.065857 89.165344 11.31488l0 0c0 6.249054 -39.920685 11.31488 -89.165344 11.31488c-49.24466 0 -89.165344 -5.0658264 -89.165344 -11.31488z" fill-rule="evenodd"/><defs><linearGradient id="g30ac19b7339_0_16.22" gradientUnits="userSpaceOnUse" gradientTransform="matrix(13.354052143878176 0.0 0.0 13.354052143878176 0.0 0.0)" spreadMethod="pad" x1="26.849303430035114" y1="23.242008991426882" x2="40.20335557391329" y2="23.242008991426882"><stop offset="0.0" stop-color="#62e9e6"/><stop offset="1.0" stop-color="#6d9eeb"/></linearGradient></defs><path fill="url(#g30ac19b7339_0_16.22)" d="m358.547 248.46153l0 0c0 6.2490387 39.920685 11.314896 89.165344 11.314896c49.24466 0 89.165344 -5.065857 89.165344 -11.314896l0 50.598587c0 6.249054 -39.920685 11.31488 -89.165344 11.31488c-49.24466 0 -89.165344 -5.0658264 -89.165344 -11.31488z" fill-rule="evenodd"/><defs><linearGradient id="g30ac19b7339_0_16.23" gradientUnits="userSpaceOnUse" gradientTransform="matrix(13.354052143878176 0.0 0.0 13.354052143878176 0.0 0.0)" spreadMethod="pad" x1="26.849303430035114" y1="23.242008991426882" x2="40.20335557391329" y2="23.242008991426882"><stop offset="0.0" stop-color="#62e9e6"/><stop offset="1.0" stop-color="#6d9eeb"/></linearGradient></defs><path fill="url(#g30ac19b7339_0_16.23)" d="m358.547 248.46153l0 0c0 -6.2490234 39.920685 -11.31488 89.165344 -11.31488c49.24466 0 89.165344 5.065857 89.165344 11.31488l0 0c0 6.2490387 -39.920685 11.314896 -89.165344 11.314896c-49.24466 0 -89.165344 -5.065857 -89.165344 -11.314896z" fill-rule="evenodd"/><path fill="#000000" fill-opacity="0.0" d="m536.8777 248.46153l0 0c0 6.2490387 -39.920685 11.314896 -89.165344 11.314896c-49.24466 0 -89.165344 -5.065857 -89.165344 -11.314896l0 0c0 -6.2490234 39.920685 -11.31488 89.165344 -11.31488c49.24466 0 89.165344 5.065857 89.165344 11.31488l0 50.598587c0 6.249054 -39.920685 11.31488 -89.165344 11.31488c-49.24466 0 -89.165344 -5.0658264 -89.165344 -11.31488l0 -50.598587" fill-rule="evenodd"/><path fill="#ffffff" fill-opacity="0.4" d="m358.547 248.46153l0 0c0 -6.2490234 39.920685 -11.31488 89.165344 -11.31488c49.24466 0 89.165344 5.065857 89.165344 11.31488l0 0c0 6.2490387 -39.920685 11.314896 -89.165344 11.314896c-49.24466 0 -89.165344 -5.065857 -89.165344 -11.314896z" fill-rule="evenodd"/><defs><linearGradient id="g30ac19b7339_0_16.24" gradientUnits="userSpaceOnUse" gradientTransform="matrix(13.35407210563801 0.0 0.0 13.35407210563801 0.0 0.0)" spreadMethod="pad" x1="40.20333540079729" y1="12.807690160754479" x2="26.849263295509658" y2="12.807593423916574"><stop offset="0.0" stop-color="#63e4e7" stop-opacity="0.6"/><stop offset="0.5" stop-color="#58dbce" stop-opacity="0.5254902"/><stop offset="1.0" stop-color="#49cead" stop-opacity="0.4509804"/></linearGradient></defs><path fill="url(#g30ac19b7339_0_16.24)" d="m358.547 182.3497l0 0c0 6.2490234 39.920685 11.31488 89.165344 11.31488c49.24466 0 89.165344 -5.065857 89.165344 -11.31488l0 50.598587c0 6.2490387 -39.920685 11.31488 -89.165344 11.31488c-49.24466 0 -89.165344 -5.0658417 -89.165344 -11.31488z" fill-rule="evenodd"/><defs><linearGradient id="g30ac19b7339_0_16.25" gradientUnits="userSpaceOnUse" gradientTransform="matrix(13.35407210563801 0.0 0.0 13.35407210563801 0.0 0.0)" spreadMethod="pad" x1="40.20333540079729" y1="12.807690160754479" x2="26.849263295509658" y2="12.807593423916574"><stop offset="0.0" stop-color="#63e4e7" stop-opacity="0.6"/><stop offset="0.5" stop-color="#58dbce" stop-opacity="0.5254902"/><stop offset="1.0" stop-color="#49cead" stop-opacity="0.4509804"/></linearGradient></defs><path fill="url(#g30ac19b7339_0_16.25)" d="m358.547 182.3497l0 0c0 -6.2490387 39.920685 -11.31488 89.165344 -11.31488c49.24466 0 89.165344 5.0658417 89.165344 11.31488l0 0c0 6.2490234 -39.920685 11.31488 -89.165344 11.31488c-49.24466 0 -89.165344 -5.065857 -89.165344 -11.31488z" fill-rule="evenodd"/><path fill="#000000" fill-opacity="0.0" d="m536.8777 182.3497l0 0c0 6.2490234 -39.920685 11.31488 -89.165344 11.31488c-49.24466 0 -89.165344 -5.065857 -89.165344 -11.31488l0 0c0 -6.2490387 39.920685 -11.31488 89.165344 -11.31488c49.24466 0 89.165344 5.0658417 89.165344 11.31488l0 50.598587c0 6.2490387 -39.920685 11.31488 -89.165344 11.31488c-49.24466 0 -89.165344 -5.0658417 -89.165344 -11.31488l0 -50.598587" fill-rule="evenodd"/><path fill="#ffffff" fill-opacity="0.4" d="m358.547 182.3497l0 0c0 -6.2490387 39.920685 -11.31488 89.165344 -11.31488c49.24466 0 89.165344 5.0658417 89.165344 11.31488l0 0c0 6.2490234 -39.920685 11.31488 -89.165344 11.31488c-49.24466 0 -89.165344 -5.065857 -89.165344 -11.31488z" fill-rule="evenodd"/><defs><linearGradient id="g30ac19b7339_0_16.26" gradientUnits="userSpaceOnUse" gradientTransform="matrix(13.35407210563801 0.0 0.0 13.35407210563801 0.0 0.0)" spreadMethod="pad" x1="40.20333232978656" y1="7.857002059060473" x2="26.84926022449893" y2="7.856905322222568"><stop offset="0.0" stop-color="#63e4e7" stop-opacity="0.6"/><stop offset="0.5" stop-color="#58dbce" stop-opacity="0.5254902"/><stop offset="1.0" stop-color="#49cead" stop-opacity="0.4509804"/></linearGradient></defs><path fill="url(#g30ac19b7339_0_16.26)" d="m358.547 116.237854l0 0c0 6.2490387 39.920685 11.31488 89.165344 11.31488c49.24466 0 89.165344 -5.0658417 89.165344 -11.31488l0 50.598587c0 6.2490387 -39.920685 11.31488 -89.165344 11.31488c-49.24466 0 -89.165344 -5.0658417 -89.165344 -11.31488z" fill-rule="evenodd"/><defs><linearGradient id="g30ac19b7339_0_16.27" gradientUnits="userSpaceOnUse" gradientTransform="matrix(13.35407210563801 0.0 0.0 13.35407210563801 0.0 0.0)" spreadMethod="pad" x1="40.20333232978656" y1="7.857002059060473" x2="26.84926022449893" y2="7.856905322222568"><stop offset="0.0" stop-color="#63e4e7" stop-opacity="0.6"/><stop offset="0.5" stop-color="#58dbce" stop-opacity="0.5254902"/><stop offset="1.0" stop-color="#49cead" stop-opacity="0.4509804"/></linearGradient></defs><path fill="url(#g30ac19b7339_0_16.27)" d="m358.547 116.237854l0 0c0 -6.249031 39.920685 -11.314873 89.165344 -11.314873c49.24466 0 89.165344 5.0658417 89.165344 11.314873l0 0c0 6.2490387 -39.920685 11.31488 -89.165344 11.31488c-49.24466 0 -89.165344 -5.0658417 -89.165344 -11.31488z" fill-rule="evenodd"/><path fill="#000000" fill-opacity="0.0" d="m536.8777 116.237854l0 0c0 6.2490387 -39.920685 11.31488 -89.165344 11.31488c-49.24466 0 -89.165344 -5.0658417 -89.165344 -11.31488l0 0c0 -6.249031 39.920685 -11.314873 89.165344 -11.314873c49.24466 0 89.165344 5.0658417 89.165344 11.314873l0 50.598587c0 6.2490387 -39.920685 11.31488 -89.165344 11.31488c-49.24466 0 -89.165344 -5.0658417 -89.165344 -11.31488l0 -50.598587" fill-rule="evenodd"/><path fill="#ffffff" fill-opacity="0.4" d="m358.547 116.237854l0 0c0 -6.249031 39.920685 -11.314873 89.165344 -11.314873c49.24466 0 89.165344 5.0658417 89.165344 11.314873l0 0c0 6.2490387 -39.920685 11.31488 -89.165344 11.31488c-49.24466 0 -89.165344 -5.0658417 -89.165344 -11.31488z" fill-rule="evenodd"/><defs><linearGradient id="g30ac19b7339_0_16.28" gradientUnits="userSpaceOnUse" gradientTransform="matrix(13.354072105637316 0.0 0.0 13.354072105637316 0.0 0.0)" spreadMethod="pad" x1="40.20333540079938" y1="2.9063147251193002" x2="26.849263295511054" y2="2.906218180219565"><stop offset="0.0" stop-color="#63e4e7" stop-opacity="0.6"/><stop offset="0.5" stop-color="#58dbce" stop-opacity="0.5254902"/><stop offset="1.0" stop-color="#49cead" stop-opacity="0.4509804"/></linearGradient></defs><path fill="url(#g30ac19b7339_0_16.28)" d="m358.547 50.126015l0 0c0 6.249035 39.920685 11.314877 89.165344 11.314877c49.24466 0 89.165344 -5.0658417 89.165344 -11.314877l0 50.598587c0 6.2490387 -39.920685 11.31488 -89.165344 11.31488c-49.24466 0 -89.165344 -5.0658417 -89.165344 -11.31488z" fill-rule="evenodd"/><defs><linearGradient id="g30ac19b7339_0_16.29" gradientUnits="userSpaceOnUse" gradientTransform="matrix(13.354072105637316 0.0 0.0 13.354072105637316 0.0 0.0)" spreadMethod="pad" x1="40.20333540079938" y1="2.9063147251193002" x2="26.849263295511054" y2="2.906218180219565"><stop offset="0.0" stop-color="#63e4e7" stop-opacity="0.6"/><stop offset="0.5" stop-color="#58dbce" stop-opacity="0.5254902"/><stop offset="1.0" stop-color="#49cead" stop-opacity="0.4509804"/></linearGradient></defs><path fill="url(#g30ac19b7339_0_16.29)" d="m358.547 50.126015l0 0c0 -6.249035 39.920685 -11.314877 89.165344 -11.314877c49.24466 0 89.165344 5.0658417 89.165344 11.314877l0 0c0 6.249035 -39.920685 11.314877 -89.165344 11.314877c-49.24466 0 -89.165344 -5.0658417 -89.165344 -11.314877z" fill-rule="evenodd"/><path fill="#000000" fill-opacity="0.0" d="m536.8777 50.126015l0 0c0 6.249035 -39.920685 11.314877 -89.165344 11.314877c-49.24466 0 -89.165344 -5.0658417 -89.165344 -11.314877l0 0c0 -6.249035 39.920685 -11.314877 89.165344 -11.314877c49.24466 0 89.165344 5.0658417 89.165344 11.314877l0 50.598587c0 6.2490387 -39.920685 11.31488 -89.165344 11.31488c-49.24466 0 -89.165344 -5.0658417 -89.165344 -11.31488l0 -50.598587" fill-rule="evenodd"/><path fill="#ffffff" fill-opacity="0.4" d="m358.547 50.126015l0 0c0 -6.249035 39.920685 -11.314877 89.165344 -11.314877c49.24466 0 89.165344 5.0658417 89.165344 11.314877l0 0c0 6.249035 -39.920685 11.314877 -89.165344 11.314877c-49.24466 0 -89.165344 -5.0658417 -89.165344 -11.314877z" fill-rule="evenodd"/><defs><linearGradient id="g30ac19b7339_0_16.30" gradientUnits="userSpaceOnUse" gradientTransform="matrix(8.272921609514842 0.0 0.0 8.272921609514842 0.0 0.0)" spreadMethod="pad" x1="58.254381563622324" y1="1.5983256555873928" x2="49.981459954324706" y2="1.598265704491285"><stop offset="0.0" stop-color="#63e4e7" stop-opacity="0.6"/><stop offset="0.5" stop-color="#58dbce" stop-opacity="0.5254902"/><stop offset="1.0" stop-color="#49cead" stop-opacity="0.4509804"/></linearGradient></defs><path fill="url(#g30ac19b7339_0_16.30)" d="m413.4927 20.16957l0 0c0 3.836584 15.321014 6.9467487 34.22046 6.9467487c18.899445 0 34.22049 -3.1101646 34.22049 -6.9467487l0 22.893902c0 3.836586 -15.321045 6.9467506 -34.22049 6.9467506c-18.899445 0 -34.22046 -3.1101646 -34.22046 -6.9467506z" fill-rule="evenodd"/><defs><linearGradient id="g30ac19b7339_0_16.31" gradientUnits="userSpaceOnUse" gradientTransform="matrix(8.272921609514842 0.0 0.0 8.272921609514842 0.0 0.0)" spreadMethod="pad" x1="58.254381563622324" y1="1.5983256555873928" x2="49.981459954324706" y2="1.598265704491285"><stop offset="0.0" stop-color="#63e4e7" stop-opacity="0.6"/><stop offset="0.5" stop-color="#58dbce" stop-opacity="0.5254902"/><stop offset="1.0" stop-color="#49cead" stop-opacity="0.4509804"/></linearGradient></defs><path fill="url(#g30ac19b7339_0_16.31)" d="m413.4927 20.16957l0 0c0 -3.836584 15.321014 -6.9467487 34.22046 -6.9467487c18.899445 0 34.22049 3.1101646 34.22049 6.9467487l0 0c0 3.836584 -15.321045 6.9467487 -34.22049 6.9467487c-18.899445 0 -34.22046 -3.1101646 -34.22046 -6.9467487z" fill-rule="evenodd"/><path fill="#000000" fill-opacity="0.0" d="m481.93365 20.16957l0 0c0 3.836584 -15.321045 6.9467487 -34.22049 6.9467487c-18.899445 0 -34.22046 -3.1101646 -34.22046 -6.9467487l0 0c0 -3.836584 15.321014 -6.9467487 34.22046 -6.9467487c18.899445 0 34.22049 3.1101646 34.22049 6.9467487l0 22.893902c0 3.836586 -15.321045 6.9467506 -34.22049 6.9467506c-18.899445 0 -34.22046 -3.1101646 -34.22046 -6.9467506l0 -22.893902" fill-rule="evenodd"/><path fill="#ffffff" fill-opacity="0.4" d="m413.4927 20.16957l0 0c0 -3.836584 15.321014 -6.9467487 34.22046 -6.9467487c18.899445 0 34.22049 3.1101646 34.22049 6.9467487l0 0c0 3.836584 -15.321045 6.9467487 -34.22049 6.9467487c-18.899445 0 -34.22046 -3.1101646 -34.22046 -6.9467487z" fill-rule="evenodd"/><path fill="#05668d" d="m439.3244 412.16116l16.804321 0l0 5.378113l-16.804321 0z" fill-rule="evenodd"/><path fill="#ffffff" d="m439.3244 83.07786l5.7131042 0l0 -5.7131042l5.378113 0l0 5.7131042l5.7131042 0l0 5.378113l-5.7131042 0l0 5.7131042l-5.378113 0l0 -5.7131042l-5.7131042 0z" fill-rule="evenodd"/><defs><linearGradient id="g30ac19b7339_0_16.32" gradientUnits="userSpaceOnUse" gradientTransform="matrix(13.354052143878176 0.0 0.0 13.354052143878176 0.0 0.0)" spreadMethod="pad" x1="41.70139070387314" y1="32.15322634615507" x2="55.055442847751316" y2="32.15322634615507"><stop offset="0.0" stop-color="#62e9e6"/><stop offset="1.0" stop-color="#6d9eeb"/></linearGradient></defs><path fill="url(#g30ac19b7339_0_16.32)" d="m556.8825 367.4624l0 0c0 6.2490234 39.920715 11.31488 89.165405 11.31488c49.24463 0 89.165344 -5.065857 89.165344 -11.31488l0 50.59857c0 6.249054 -39.920715 11.31488 -89.165344 11.31488c-49.24469 0 -89.165405 -5.0658264 -89.165405 -11.31488z" fill-rule="evenodd"/><defs><linearGradient id="g30ac19b7339_0_16.33" gradientUnits="userSpaceOnUse" gradientTransform="matrix(13.354052143878176 0.0 0.0 13.354052143878176 0.0 0.0)" spreadMethod="pad" x1="41.70139070387314" y1="32.15322634615507" x2="55.055442847751316" y2="32.15322634615507"><stop offset="0.0" stop-color="#62e9e6"/><stop offset="1.0" stop-color="#6d9eeb"/></linearGradient></defs><path fill="url(#g30ac19b7339_0_16.33)" d="m556.8825 367.4624l0 0c0 -6.249054 39.920715 -11.31488 89.165405 -11.31488c49.24463 0 89.165344 5.0658264 89.165344 11.31488l0 0c0 6.2490234 -39.920715 11.31488 -89.165344 11.31488c-49.24469 0 -89.165405 -5.065857 -89.165405 -11.31488z" fill-rule="evenodd"/><path fill="#000000" fill-opacity="0.0" d="m735.21326 367.4624l0 0c0 6.2490234 -39.920715 11.31488 -89.165344 11.31488c-49.24469 0 -89.165405 -5.065857 -89.165405 -11.31488l0 0c0 -6.249054 39.920715 -11.31488 89.165405 -11.31488c49.24463 0 89.165344 5.0658264 89.165344 11.31488l0 50.59857c0 6.249054 -39.920715 11.31488 -89.165344 11.31488c-49.24469 0 -89.165405 -5.0658264 -89.165405 -11.31488l0 -50.59857" fill-rule="evenodd"/><path fill="#ffffff" fill-opacity="0.4" d="m556.8825 367.4624l0 0c0 -6.249054 39.920715 -11.31488 89.165405 -11.31488c49.24463 0 89.165344 5.0658264 89.165344 11.31488l0 0c0 6.2490234 -39.920715 11.31488 -89.165344 11.31488c-49.24469 0 -89.165405 -5.065857 -89.165405 -11.31488z" fill-rule="evenodd"/><defs><linearGradient id="g30ac19b7339_0_16.34" gradientUnits="userSpaceOnUse" gradientTransform="matrix(13.354052143878176 0.0 0.0 13.354052143878176 0.0 0.0)" spreadMethod="pad" x1="41.70139070387314" y1="27.20253161188084" x2="55.055442847751316" y2="27.20253161188084"><stop offset="0.0" stop-color="#62e9e6"/><stop offset="1.0" stop-color="#6d9eeb"/></linearGradient></defs><path fill="url(#g30ac19b7339_0_16.34)" d="m556.8825 301.35056l0 0c0 6.2490234 39.920715 11.31488 89.165405 11.31488c49.24463 0 89.165344 -5.065857 89.165344 -11.31488l0 50.598602c0 6.2490234 -39.920715 11.31488 -89.165344 11.31488c-49.24469 0 -89.165405 -5.065857 -89.165405 -11.31488z" fill-rule="evenodd"/><defs><linearGradient id="g30ac19b7339_0_16.35" gradientUnits="userSpaceOnUse" gradientTransform="matrix(13.354052143878176 0.0 0.0 13.354052143878176 0.0 0.0)" spreadMethod="pad" x1="41.70139070387314" y1="27.20253161188084" x2="55.055442847751316" y2="27.20253161188084"><stop offset="0.0" stop-color="#62e9e6"/><stop offset="1.0" stop-color="#6d9eeb"/></linearGradient></defs><path fill="url(#g30ac19b7339_0_16.35)" d="m556.8825 301.35056l0 0c0 -6.2490234 39.920715 -11.31488 89.165405 -11.31488c49.24463 0 89.165344 5.065857 89.165344 11.31488l0 0c0 6.2490234 -39.920715 11.31488 -89.165344 11.31488c-49.24469 0 -89.165405 -5.065857 -89.165405 -11.31488z" fill-rule="evenodd"/><path fill="#000000" fill-opacity="0.0" d="m735.21326 301.35056l0 0c0 6.2490234 -39.920715 11.31488 -89.165344 11.31488c-49.24469 0 -89.165405 -5.065857 -89.165405 -11.31488l0 0c0 -6.2490234 39.920715 -11.31488 89.165405 -11.31488c49.24463 0 89.165344 5.065857 89.165344 11.31488l0 50.598602c0 6.2490234 -39.920715 11.31488 -89.165344 11.31488c-49.24469 0 -89.165405 -5.065857 -89.165405 -11.31488l0 -50.598602" fill-rule="evenodd"/><path fill="#ffffff" fill-opacity="0.4" d="m556.8825 301.35056l0 0c0 -6.2490234 39.920715 -11.31488 89.165405 -11.31488c49.24463 0 89.165344 5.065857 89.165344 11.31488l0 0c0 6.2490234 -39.920715 11.31488 -89.165344 11.31488c-49.24469 0 -89.165405 -5.065857 -89.165405 -11.31488z" fill-rule="evenodd"/><defs><linearGradient id="g30ac19b7339_0_16.36" gradientUnits="userSpaceOnUse" gradientTransform="matrix(13.354052143878176 0.0 0.0 13.354052143878176 0.0 0.0)" spreadMethod="pad" x1="41.70139070387314" y1="22.251836877606603" x2="55.055442847751316" y2="22.251836877606603"><stop offset="0.0" stop-color="#62e9e6"/><stop offset="1.0" stop-color="#6d9eeb"/></linearGradient></defs><path fill="url(#g30ac19b7339_0_16.36)" d="m556.8825 235.23871l0 0c0 6.2490387 39.920715 11.31488 89.165405 11.31488c49.24463 0 89.165344 -5.0658417 89.165344 -11.31488l0 50.598602c0 6.2490234 -39.920715 11.31488 -89.165344 11.31488c-49.24469 0 -89.165405 -5.065857 -89.165405 -11.31488z" fill-rule="evenodd"/><defs><linearGradient id="g30ac19b7339_0_16.37" gradientUnits="userSpaceOnUse" gradientTransform="matrix(13.354052143878176 0.0 0.0 13.354052143878176 0.0 0.0)" spreadMethod="pad" x1="41.70139070387314" y1="22.251836877606603" x2="55.055442847751316" y2="22.251836877606603"><stop offset="0.0" stop-color="#62e9e6"/><stop offset="1.0" stop-color="#6d9eeb"/></linearGradient></defs><path fill="url(#g30ac19b7339_0_16.37)" d="m556.8825 235.23871l0 0c0 -6.2490234 39.920715 -11.314865 89.165405 -11.314865c49.24463 0 89.165344 5.0658417 89.165344 11.314865l0 0c0 6.2490387 -39.920715 11.31488 -89.165344 11.31488c-49.24469 0 -89.165405 -5.0658417 -89.165405 -11.31488z" fill-rule="evenodd"/><path fill="#000000" fill-opacity="0.0" d="m735.21326 235.23871l0 0c0 6.2490387 -39.920715 11.31488 -89.165344 11.31488c-49.24469 0 -89.165405 -5.0658417 -89.165405 -11.31488l0 0c0 -6.2490234 39.920715 -11.314865 89.165405 -11.314865c49.24463 0 89.165344 5.0658417 89.165344 11.314865l0 50.598602c0 6.2490234 -39.920715 11.31488 -89.165344 11.31488c-49.24469 0 -89.165405 -5.065857 -89.165405 -11.31488l0 -50.598602" fill-rule="evenodd"/><path fill="#ffffff" fill-opacity="0.4" d="m556.8825 235.23871l0 0c0 -6.2490234 39.920715 -11.314865 89.165405 -11.314865c49.24463 0 89.165344 5.0658417 89.165344 11.314865l0 0c0 6.2490387 -39.920715 11.31488 -89.165344 11.31488c-49.24469 0 -89.165405 -5.0658417 -89.165405 -11.31488z" fill-rule="evenodd"/><defs><linearGradient id="g30ac19b7339_0_16.38" gradientUnits="userSpaceOnUse" gradientTransform="matrix(13.354052143878176 0.0 0.0 13.354052143878176 0.0 0.0)" spreadMethod="pad" x1="41.70139070387314" y1="17.30114060782471" x2="55.055442847751316" y2="17.30114060782471"><stop offset="0.0" stop-color="#62e9e6"/><stop offset="1.0" stop-color="#6d9eeb"/></linearGradient></defs><path fill="url(#g30ac19b7339_0_16.38)" d="m556.8825 169.12688l0 0c0 6.2490387 39.920715 11.31488 89.165405 11.31488c49.24463 0 89.165344 -5.0658417 89.165344 -11.31488l0 50.598587c0 6.2490387 -39.920715 11.31488 -89.165344 11.31488c-49.24469 0 -89.165405 -5.0658417 -89.165405 -11.31488z" fill-rule="evenodd"/><defs><linearGradient id="g30ac19b7339_0_16.39" gradientUnits="userSpaceOnUse" gradientTransform="matrix(13.354052143878176 0.0 0.0 13.354052143878176 0.0 0.0)" spreadMethod="pad" x1="41.70139070387314" y1="17.30114060782471" x2="55.055442847751316" y2="17.30114060782471"><stop offset="0.0" stop-color="#62e9e6"/><stop offset="1.0" stop-color="#6d9eeb"/></linearGradient></defs><path fill="url(#g30ac19b7339_0_16.39)" d="m556.8825 169.12688l0 0c0 -6.2490387 39.920715 -11.31488 89.165405 -11.31488c49.24463 0 89.165344 5.0658417 89.165344 11.31488l0 0c0 6.2490387 -39.920715 11.31488 -89.165344 11.31488c-49.24469 0 -89.165405 -5.0658417 -89.165405 -11.31488z" fill-rule="evenodd"/><path fill="#000000" fill-opacity="0.0" d="m735.21326 169.12688l0 0c0 6.2490387 -39.920715 11.31488 -89.165344 11.31488c-49.24469 0 -89.165405 -5.0658417 -89.165405 -11.31488l0 0c0 -6.2490387 39.920715 -11.31488 89.165405 -11.31488c49.24463 0 89.165344 5.0658417 89.165344 11.31488l0 50.598587c0 6.2490387 -39.920715 11.31488 -89.165344 11.31488c-49.24469 0 -89.165405 -5.0658417 -89.165405 -11.31488l0 -50.598587" fill-rule="evenodd"/><path fill="#ffffff" fill-opacity="0.4" d="m556.8825 169.12688l0 0c0 -6.2490387 39.920715 -11.31488 89.165405 -11.31488c49.24463 0 89.165344 5.0658417 89.165344 11.31488l0 0c0 6.2490387 -39.920715 11.31488 -89.165344 11.31488c-49.24469 0 -89.165405 -5.0658417 -89.165405 -11.31488z" fill-rule="evenodd"/><defs><linearGradient id="g30ac19b7339_0_16.40" gradientUnits="userSpaceOnUse" gradientTransform="matrix(13.354052143878176 0.0 0.0 13.354052143878176 0.0 0.0)" spreadMethod="pad" x1="41.70139070387314" y1="12.350445873550472" x2="55.055442847751316" y2="12.350445873550472"><stop offset="0.0" stop-color="#62e9e6"/><stop offset="1.0" stop-color="#6d9eeb"/></linearGradient></defs><path fill="url(#g30ac19b7339_0_16.40)" d="m556.8825 103.01504l0 0c0 6.249031 39.920715 11.314873 89.165405 11.314873c49.24463 0 89.165344 -5.0658417 89.165344 -11.314873l0 50.59858c0 6.2490387 -39.920715 11.31488 -89.165344 11.31488c-49.24469 0 -89.165405 -5.0658417 -89.165405 -11.31488z" fill-rule="evenodd"/><defs><linearGradient id="g30ac19b7339_0_16.41" gradientUnits="userSpaceOnUse" gradientTransform="matrix(13.354052143878176 0.0 0.0 13.354052143878176 0.0 0.0)" spreadMethod="pad" x1="41.70139070387314" y1="12.350445873550472" x2="55.055442847751316" y2="12.350445873550472"><stop offset="0.0" stop-color="#62e9e6"/><stop offset="1.0" stop-color="#6d9eeb"/></linearGradient></defs><path fill="url(#g30ac19b7339_0_16.41)" d="m556.8825 103.01504l0 0c0 -6.2490387 39.920715 -11.31488 89.165405 -11.31488c49.24463 0 89.165344 5.0658417 89.165344 11.31488l0 0c0 6.249031 -39.920715 11.314873 -89.165344 11.314873c-49.24469 0 -89.165405 -5.0658417 -89.165405 -11.314873z" fill-rule="evenodd"/><path fill="#000000" fill-opacity="0.0" d="m735.21326 103.01504l0 0c0 6.249031 -39.920715 11.314873 -89.165344 11.314873c-49.24469 0 -89.165405 -5.0658417 -89.165405 -11.314873l0 0c0 -6.2490387 39.920715 -11.31488 89.165405 -11.31488c49.24463 0 89.165344 5.0658417 89.165344 11.31488l0 50.59858c0 6.2490387 -39.920715 11.31488 -89.165344 11.31488c-49.24469 0 -89.165405 -5.0658417 -89.165405 -11.31488l0 -50.59858" fill-rule="evenodd"/><path fill="#ffffff" fill-opacity="0.4" d="m556.8825 103.01504l0 0c0 -6.2490387 39.920715 -11.31488 89.165405 -11.31488c49.24463 0 89.165344 5.0658417 89.165344 11.31488l0 0c0 6.249031 -39.920715 11.314873 -89.165344 11.314873c-49.24469 0 -89.165405 -5.0658417 -89.165405 -11.314873z" fill-rule="evenodd"/><defs><linearGradient id="g30ac19b7339_0_16.42" gradientUnits="userSpaceOnUse" gradientTransform="matrix(13.354052143878176 0.0 0.0 13.354052143878176 0.0 0.0)" spreadMethod="pad" x1="41.70139070387314" y1="7.399751139276236" x2="55.055442847751316" y2="7.399751139276236"><stop offset="0.0" stop-color="#62e9e6"/><stop offset="1.0" stop-color="#6d9eeb"/></linearGradient></defs><path fill="url(#g30ac19b7339_0_16.42)" d="m556.8825 36.903194l0 0c0 6.249035 39.920715 11.314877 89.165405 11.314877c49.24463 0 89.165344 -5.0658417 89.165344 -11.314877l0 50.59859c0 6.249031 -39.920715 11.314873 -89.165344 11.314873c-49.24469 0 -89.165405 -5.0658417 -89.165405 -11.314873z" fill-rule="evenodd"/><defs><linearGradient id="g30ac19b7339_0_16.43" gradientUnits="userSpaceOnUse" gradientTransform="matrix(13.354052143878176 0.0 0.0 13.354052143878176 0.0 0.0)" spreadMethod="pad" x1="41.70139070387314" y1="7.399751139276236" x2="55.055442847751316" y2="7.399751139276236"><stop offset="0.0" stop-color="#62e9e6"/><stop offset="1.0" stop-color="#6d9eeb"/></linearGradient></defs><path fill="url(#g30ac19b7339_0_16.43)" d="m556.8825 36.903194l0 0c0 -6.249035 39.920715 -11.314878 89.165405 -11.314878c49.24463 0 89.165344 5.0658436 89.165344 11.314878l0 0c0 6.249035 -39.920715 11.314877 -89.165344 11.314877c-49.24469 0 -89.165405 -5.0658417 -89.165405 -11.314877z" fill-rule="evenodd"/><path fill="#000000" fill-opacity="0.0" d="m735.21326 36.903194l0 0c0 6.249035 -39.920715 11.314877 -89.165344 11.314877c-49.24469 0 -89.165405 -5.0658417 -89.165405 -11.314877l0 0c0 -6.249035 39.920715 -11.314878 89.165405 -11.314878c49.24463 0 89.165344 5.0658436 89.165344 11.314878l0 50.59859c0 6.249031 -39.920715 11.314873 -89.165344 11.314873c-49.24469 0 -89.165405 -5.0658417 -89.165405 -11.314873l0 -50.59859" fill-rule="evenodd"/><path fill="#ffffff" fill-opacity="0.4" d="m556.8825 36.903194l0 0c0 -6.249035 39.920715 -11.314878 89.165405 -11.314878c49.24463 0 89.165344 5.0658436 89.165344 11.314878l0 0c0 6.249035 -39.920715 11.314877 -89.165344 11.314877c-49.24469 0 -89.165405 -5.0658417 -89.165405 -11.314877z" fill-rule="evenodd"/><defs><linearGradient id="g30ac19b7339_0_16.44" gradientUnits="userSpaceOnUse" gradientTransform="matrix(8.272904259200017 0.0 0.0 8.272904259200017 0.0 0.0)" spreadMethod="pad" x1="73.95567854554858" y1="4.446733628506958" x2="82.2285828047486" y2="4.446733628506958"><stop offset="0.0" stop-color="#62e9e6"/><stop offset="1.0" stop-color="#6d9eeb"/></linearGradient></defs><path fill="url(#g30ac19b7339_0_16.44)" d="m611.82825 6.946749l0 0c0 3.8365836 15.321045 6.946749 34.22046 6.946749c18.899475 0 34.22046 -3.1101656 34.22046 -6.946749l0 22.893904c0 3.8365822 -15.320984 6.9467506 -34.22046 6.9467506c-18.899414 0 -34.22046 -3.1101685 -34.22046 -6.9467506z" fill-rule="evenodd"/><defs><linearGradient id="g30ac19b7339_0_16.45" gradientUnits="userSpaceOnUse" gradientTransform="matrix(8.272904259200017 0.0 0.0 8.272904259200017 0.0 0.0)" spreadMethod="pad" x1="73.95567854554858" y1="4.446733628506958" x2="82.2285828047486" y2="4.446733628506958"><stop offset="0.0" stop-color="#62e9e6"/><stop offset="1.0" stop-color="#6d9eeb"/></linearGradient></defs><path fill="url(#g30ac19b7339_0_16.45)" d="m611.82825 6.946749l0 0c0 -3.8365839 15.321045 -6.946749 34.22046 -6.946749c18.899475 -4.1497787E-15 34.22046 3.1101654 34.22046 6.946749l0 0c0 3.8365836 -15.320984 6.946749 -34.22046 6.946749c-18.899414 0 -34.22046 -3.1101656 -34.22046 -6.946749z" fill-rule="evenodd"/><path fill="#000000" fill-opacity="0.0" d="m680.26917 6.946749l0 0c0 3.8365836 -15.320984 6.946749 -34.22046 6.946749c-18.899414 0 -34.22046 -3.1101656 -34.22046 -6.946749l0 0c0 -3.8365839 15.321045 -6.946749 34.22046 -6.946749c18.899475 -4.1497783E-15 34.22046 3.1101654 34.22046 6.946749l0 22.893904c0 3.8365822 -15.320984 6.9467506 -34.22046 6.9467506c-18.899414 0 -34.22046 -3.1101685 -34.22046 -6.9467506l0 -22.893904" fill-rule="evenodd"/><path fill="#ffffff" fill-opacity="0.4" d="m611.82825 6.946749l0 0c0 -3.8365839 15.321045 -6.946749 34.22046 -6.946749c18.899475 -4.1497787E-15 34.22046 3.1101654 34.22046 6.946749l0 0c0 3.8365836 -15.320984 6.946749 -34.22046 6.946749c-18.899414 0 -34.22046 -3.1101656 -34.22046 -6.946749z" fill-rule="evenodd"/><path fill="#05668d" d="m637.6599 398.93835l16.804321 0l0 5.378113l-16.804321 0z" fill-rule="evenodd"/><path fill="#ffffff" d="m637.6599 69.855034l5.713135 0l0 -5.7131042l5.378113 0l0 5.7131042l5.7130737 0l0 5.378113l-5.7130737 0l0 5.713112l-5.378113 0l0 -5.713112l-5.713135 0z" fill-rule="evenodd"/><path fill="#49cead" d="m844.2332 357.88358l34.096985 0c1.8310547E-4 0 3.0517578E-4 6.1035156E-5 4.272461E-4 1.8310547E-4c6.1035156E-5 9.1552734E-5 1.2207031E-4 2.4414062E-4 1.2207031E-4 3.9672852E-4l-5.493164E-4 39.09384l0 0c0 18.831268 -15.265747 34.097015 -34.096985 34.097015l-34.096985 0l0 0c-3.6621094E-4 0 -6.1035156E-4 -2.746582E-4 -6.1035156E-4 -5.79834E-4l6.1035156E-4 -39.09384l0 0c0 -18.831268 15.265747 -34.097015 34.096985 -34.097015z" fill-rule="evenodd"/><path fill="#49cead" d="m778.2169 379.37l-20.952759 0c-1.2207031E-4 0 -1.8310547E-4 3.0517578E-5 -2.4414062E-4 1.2207031E-4c-6.1035156E-5 6.1035156E-5 -1.2207031E-4 1.5258789E-4 -1.2207031E-4 2.4414062E-4l3.6621094E-4 24.023712c0 11.571869 9.380859 20.952728 20.952759 20.952728l20.952698 0l0 0c1.8310547E-4 0 3.6621094E-4 -1.5258789E-4 3.6621094E-4 -3.3569336E-4l-3.6621094E-4 -24.023712l0 0c0 -11.571899 -9.380859 -20.952759 -20.952698 -20.952759z" fill-rule="evenodd"/><path fill="#49cead" d="m791.46985 347.644l-9.266052 0c-6.1035156E-5 0 -6.1035156E-5 3.0517578E-5 -1.2207031E-4 6.1035156E-5c0 3.0517578E-5 -6.1035156E-5 6.1035156E-5 -6.1035156E-5 9.1552734E-5l1.8310547E-4 10.619385l0 0c0 5.1174927 4.1485596 9.266052 9.266052 9.266052l9.266052 0l0 0c6.1035156E-5 0 1.8310547E-4 -6.1035156E-5 1.8310547E-4 -1.5258789E-4l-1.8310547E-4 -10.619385l0 0c0 -5.1174927 -4.1485596 -9.266052 -9.266052 -9.266052z" fill-rule="evenodd"/><path fill="#000000" fill-opacity="0.0" d="m825.3641 418.45804c0 -11.239563 10.185547 -16.859344 20.371094 -22.479095c10.185608 -5.6197815 20.371155 -11.239563 20.371155 -22.479126" fill-rule="evenodd"/><path stroke="#acf1df" stroke-width="2.0" stroke-linejoin="round" stroke-linecap="butt" d="m825.3641 418.45804c0 -11.239563 10.185547 -16.859344 20.371094 -22.479095c10.185608 -5.6197815 20.371155 -11.239563 20.371155 -22.479126" fill-rule="evenodd"/><path fill="#000000" fill-opacity="0.0" d="m769.77954 392.03406c0 5.442505 4.982605 8.163757 9.96521 10.88504c4.982544 2.7212524 9.965149 5.442505 9.965149 10.88501" fill-rule="evenodd"/><path stroke="#acf1df" stroke-width="2.0" stroke-linejoin="round" stroke-linecap="butt" d="m769.77954 392.03406c0 5.442505 4.982605 8.163757 9.96521 10.88504c4.982544 2.7212524 9.965149 5.442505 9.965149 10.88501" fill-rule="evenodd"/><path fill="#000000" fill-opacity="0.0" d="m23.475077 464.70737l914.6771 0l0 59.77951l-914.6771 0z" fill-rule="evenodd"/><path fill="#80dfc7" d="m405.3989 513.0355l0 -24.828156l3.453125 0l0 4.0l-0.53125 -0.296875q0.203125 -1.0 1.140625 -1.90625q0.9375 -0.921875 2.28125 -1.5q1.34375 -0.59375 2.78125 -0.59375q2.359375 0 4.1875 1.171875q1.84375 1.15625 2.90625 3.203125q1.078125 2.03125 1.078125 4.65625q0 2.59375 -1.0625 4.65625q-1.046875 2.046875 -2.875 3.234375q-1.828125 1.171875 -4.140625 1.171875q-1.53125 0 -2.96875 -0.609375q-1.421875 -0.625 -2.421875 -1.578125q-1.0 -0.96875 -1.234375 -2.015625l0.859375 -0.453125l0 11.6875305l-3.453125 0zm8.65625 -10.1875305q1.53125 0 2.734375 -0.765625q1.203125 -0.78125 1.890625 -2.109375q0.703125 -1.328125 0.703125 -3.03125q0 -1.703125 -0.6875 -3.015625q-0.671875 -1.3125 -1.875 -2.078125q-1.203125 -0.765625 -2.765625 -0.765625q-1.5625 0 -2.765625 0.75q-1.203125 0.75 -1.90625 2.078125q-0.6875 1.328125 -0.6875 3.03125q0 1.703125 0.6875 3.03125q0.703125 1.328125 1.90625 2.109375q1.203125 0.765625 2.765625 0.765625zm20.529999 3.1875q-2.703125 0 -4.78125 -1.140625q-2.078125 -1.15625 -3.265625 -3.15625q-1.1875 -2.0 -1.1875 -4.59375q0 -2.0625 0.671875 -3.765625q0.671875 -1.703125 1.84375 -2.953125q1.1875 -1.25 2.828125 -1.921875q1.65625 -0.6875 3.59375 -0.6875q1.703125 0 3.15625 0.65625q1.46875 0.640625 2.546875 1.78125q1.09375 1.125 1.671875 2.671875q0.59375 1.546875 0.5625 3.375l-0.046875 1.46875l-14.296875 0l-0.765625 -2.734375l12.109375 0l-0.5 0.578125l0 -0.796875q-0.109375 -1.109375 -0.75 -1.96875q-0.625 -0.875 -1.59375 -1.375q-0.96875 -0.5 -2.09375 -0.5q-1.796875 0 -3.03125 0.6875q-1.234375 0.6875 -1.875 2.0q-0.625 1.3125 -0.625 3.25q0 1.828125 0.765625 3.1875q0.765625 1.34375 2.15625 2.078125q1.40625 0.734375 3.234375 0.734375q1.3125 0 2.421875 -0.4375q1.125 -0.4375 2.421875 -1.5625l1.734375 2.4375q-0.8125 0.796875 -1.96875 1.40625q-1.140625 0.59375 -2.421875 0.9375q-1.28125 0.34375 -2.515625 0.34375zm18.092743 0q-2.15625 0 -3.9375 -1.1875q-1.78125 -1.203125 -2.859375 -3.265625q-1.0625 -2.078125 -1.0625 -4.671875q0 -2.640625 1.078125 -4.6875q1.09375 -2.046875 2.9375 -3.203125q1.84375 -1.171875 4.15625 -1.171875q1.359375 0 2.484375 0.40625q1.140625 0.390625 1.984375 1.109375q0.859375 0.71875 1.40625 1.65625q0.546875 0.921875 0.6875 1.984375l-0.765625 -0.265625l0 -4.53125l3.46875 0l0 17.5l-3.46875 0l0 -4.171875l0.796875 -0.234375q-0.203125 0.90625 -0.828125 1.765625q-0.609375 0.84375 -1.5625 1.515625q-0.9375 0.65625 -2.09375 1.0625q-1.15625 0.390625 -2.421875 0.390625zm0.90625 -3.15625q1.5625 0 2.765625 -0.765625q1.203125 -0.765625 1.875 -2.109375q0.6875 -1.359375 0.6875 -3.09375q0 -1.703125 -0.6875 -3.03125q-0.671875 -1.34375 -1.875 -2.109375q-1.203125 -0.765625 -2.765625 -0.765625q-1.53125 0 -2.71875 0.765625q-1.1875 0.765625 -1.875 2.109375q-0.671875 1.328125 -0.671875 3.03125q0 1.734375 0.671875 3.09375q0.6875 1.34375 1.875 2.109375q1.1875 0.765625 2.71875 0.765625zm16.59668 -2.640625l-0.171875 -3.734375l8.375 -8.296875l4.625 0l-12.828125 12.03125zm-3.125 5.46875l0 -24.65625l3.421875 0l0 24.65625l-3.421875 0zm11.796875 0l-6.609375 -7.703125l2.4375 -2.234375l8.5625 9.9375l-4.390625 0z" fill-rule="nonzero"/><path fill="#118ab2" d="m484.40802 505.70737l9.03125 -23.328125l3.671875 0l8.96875 23.328125l-3.84375 0l-5.328125 -14.0625q-0.09375 -0.234375 -0.375 -1.125q-0.28125 -0.90625 -0.65625 -2.0q-0.359375 -1.109375 -0.671875 -2.015625q-0.296875 -0.921875 -0.390625 -1.1875l0.765625 -0.046875q-0.203125 0.578125 -0.484375 1.453125q-0.28125 0.859375 -0.609375 1.828125q-0.3125 0.953125 -0.609375 1.8125q-0.296875 0.84375 -0.5 1.40625l-5.296875 13.9375l-3.671875 0zm4.0 -5.796875l1.34375 -3.46875l10.59375 0l1.53125 3.46875l-13.46875 0zm20.82962 5.796875l0 -17.5l3.4687805 0l0 3.734375l-0.625 0.40625q0.265625 -0.875 0.84375 -1.671875q0.578125 -0.796875 1.421875 -1.40625q0.859375 -0.625 1.84375 -0.984375q0.984375 -0.375 2.015625 -0.375q1.5 0 2.625 0.5q1.140625 0.5 1.875 1.5q0.734375 1.0 1.0625 2.5l-0.53125 -0.140625l0.234375 -0.5625q0.375 -0.765625 1.015625 -1.4375q0.65625 -0.6875 1.484375 -1.21875q0.828125 -0.546875 1.765625 -0.84375q0.9375 -0.296875 1.828125 -0.296875q1.96875 0 3.25 0.796875q1.296875 0.796875 1.9375 2.4375q0.65625 1.625 0.65625 4.0625l0 10.5l-3.46875 0l0 -10.296875q0 -1.5 -0.390625 -2.453125q-0.375 -0.953125 -1.140625 -1.40625q-0.765625 -0.46875 -1.96875 -0.46875q-0.9375 0 -1.75 0.3125q-0.8125 0.3125 -1.421875 0.890625q-0.59375 0.5625 -0.9375 1.3125q-0.328125 0.75 -0.328125 1.640625l0 10.46875l-3.46875 0l0 -10.359375q0 -1.375 -0.40625 -2.3125q-0.390625 -0.953125 -1.15625 -1.453125q-0.765625 -0.5 -1.859375 -0.5q-0.9375 0 -1.734375 0.3125q-0.796875 0.3125 -1.40625 0.875q-0.59375 0.546875 -0.9375 1.296875q-0.328125 0.75 -0.328125 1.609375l0 10.53125l-3.4687805 0zm30.773346 7.3281555l0 -24.828156l3.453125 0l0 4.0l-0.53125 -0.296875q0.203125 -1.0 1.140625 -1.90625q0.9375 -0.921875 2.28125 -1.5q1.34375 -0.59375 2.78125 -0.59375q2.359375 0 4.1875 1.171875q1.84375 1.15625 2.90625 3.203125q1.078125 2.03125 1.078125 4.65625q0 2.59375 -1.0625 4.65625q-1.046875 2.046875 -2.875 3.234375q-1.828125 1.171875 -4.140625 1.171875q-1.53125 0 -2.96875 -0.609375q-1.421875 -0.625 -2.421875 -1.578125q-1.0 -0.96875 -1.234375 -2.015625l0.859375 -0.453125l0 11.6875305l-3.453125 0zm8.65625 -10.1875305q1.53125 0 2.734375 -0.765625q1.203125 -0.78125 1.890625 -2.109375q0.703125 -1.328125 0.703125 -3.03125q0 -1.703125 -0.6875 -3.015625q-0.671875 -1.3125 -1.875 -2.078125q-1.203125 -0.765625 -2.765625 -0.765625q-1.5625 0 -2.765625 0.75q-1.203125 0.75 -1.90625 2.078125q-0.6875 1.328125 -0.6875 3.03125q0 1.703125 0.6875 3.03125q0.703125 1.328125 1.90625 2.109375q1.203125 0.765625 2.765625 0.765625z" fill-rule="nonzero"/></g></svg>