<?xml version="1.0" encoding="UTF-8"?>
<!DOCTYPE svg PUBLIC "-//W3C//DTD SVG 1.1//EN" "http://www.w3.org/Graphics/SVG/1.1/DTD/svg11.dtd">
<!-- Creator: CorelDRAW -->
<svg xmlns="http://www.w3.org/2000/svg" xml:space="preserve" width="512px" height="512px" version="1.1" style="shape-rendering:geometricPrecision; text-rendering:geometricPrecision; image-rendering:optimizeQuality; fill-rule:evenodd; clip-rule:evenodd"
viewBox="0 0 512 512"
 xmlns:xlink="http://www.w3.org/1999/xlink">
 <defs>
  <style type="text/css">
   <![CDATA[
    .fil0 {fill:black}
   ]]>
  </style>
 </defs>
 <g id="Layer_x0020_1">
  <metadata id="CorelCorpID_0Corel-Layer"/>
  <g id="_565019728">
   <g>
    <g>
     <path class="fil0" d="M461 482l-380 0c-4,0 -7,-3 -7,-7l0 -468c0,-4 3,-7 7,-7l288 0c4,0 7,3 7,7l0 71 85 0c4,0 7,3 7,7l0 390c0,4 -3,7 -7,7zm-373 -14l366 0 0 -376 -85 0c-4,0 -7,-3 -7,-7l0 -71 -274 0 0 454z"/>
    </g>
    <g>
     <path class="fil0" d="M461 92l-92 0c-4,0 -7,-3 -7,-7l0 -78c0,-3 2,-5 4,-6 3,-1 5,-1 8,1l92 78c2,2 3,5 2,7 -1,3 -4,5 -7,5zm-85 -14l66 0 -66 -56 0 56z"/>
    </g>
    <g>
     <g>
      <path class="fil0" d="M225 204c-22,0 -42,-8 -57,-24 -16,-15 -24,-35 -24,-57 0,-22 8,-42 24,-57 15,-15 35,-24 57,-24 22,0 42,8 57,24 16,15 24,35 24,57 0,22 -8,42 -24,57 -15,16 -35,24 -57,24zm0 -148c-37,0 -67,30 -67,67 0,37 30,67 67,67 37,0 67,-30 67,-67 0,-37 -30,-67 -67,-67z"/>
     </g>
     <g>
      <path class="fil0" d="M203 161c-2,0 -4,-1 -5,-2l-19 -18c-3,-3 -3,-7 0,-10 3,-3 7,-3 10,0l14 13 57 -57c3,-3 7,-3 10,0 3,3 3,7 0,10l-62 62c-1,1 -3,2 -5,2z"/>
     </g>
    </g>
    <g>
     <path class="fil0" d="M425 254l-309 0c-4,0 -7,-3 -7,-7 0,-4 3,-7 7,-7l309 0c4,0 7,3 7,7 0,4 -3,7 -7,7z"/>
    </g>
    <g>
     <path class="fil0" d="M425 298l-309 0c-4,0 -7,-3 -7,-7 0,-4 3,-7 7,-7l309 0c4,0 7,3 7,7 0,4 -3,7 -7,7z"/>
    </g>
    <g>
     <path class="fil0" d="M425 342l-309 0c-4,0 -7,-3 -7,-7 0,-4 3,-7 7,-7l309 0c4,0 7,3 7,7 0,4 -3,7 -7,7z"/>
    </g>
    <g>
     <path class="fil0" d="M413 386l-297 0c-4,0 -7,-3 -7,-7 0,-4 3,-7 7,-7l297 0c4,0 7,3 7,7 0,4 -3,7 -7,7z"/>
    </g>
    <g>
     <path class="fil0" d="M359 430l-243 0c-4,0 -7,-3 -7,-7 0,-4 3,-7 7,-7l243 0c4,0 7,3 7,7 0,4 -3,7 -7,7z"/>
    </g>
    <g>
     <path class="fil0" d="M431 512l-380 0c-4,0 -7,-3 -7,-7l0 -463c0,-4 3,-7 7,-7l30 0c4,0 7,3 7,7 0,4 -3,7 -7,7l-23 0 0 449 366 0 0 -23c0,-4 3,-7 7,-7 4,0 7,3 7,7l0 30c0,4 -3,7 -7,7z"/>
    </g>
   </g>
  </g>
 </g>
</svg>
