<svg width="25" height="25" viewBox="0 0 25 25" fill="none" xmlns="http://www.w3.org/2000/svg">
<path fill-rule="evenodd" clip-rule="evenodd" d="M16.5 3.3418H8.5C5.73858 3.3418 3.5 5.58038 3.5 8.3418V16.3418C3.5 19.1032 5.73858 21.3418 8.5 21.3418H16.5C19.2614 21.3418 21.5 19.1032 21.5 16.3418V8.3418C21.5 5.58038 19.2614 3.3418 16.5 3.3418ZM19.75 16.3418C19.7445 18.1344 18.2926 19.5863 16.5 19.5918H8.5C6.70735 19.5863 5.25549 18.1344 5.25 16.3418V8.3418C5.25549 6.54915 6.70735 5.09729 8.5 5.0918H16.5C18.2926 5.09729 19.7445 6.54915 19.75 8.3418V16.3418ZM17.25 8.5918C17.8023 8.5918 18.25 8.14408 18.25 7.5918C18.25 7.03952 17.8023 6.5918 17.25 6.5918C16.6977 6.5918 16.25 7.03952 16.25 7.5918C16.25 8.14408 16.6977 8.5918 17.25 8.5918ZM12.5 7.8418C10.0147 7.8418 8 9.85652 8 12.3418C8 14.8271 10.0147 16.8418 12.5 16.8418C14.9853 16.8418 17 14.8271 17 12.3418C17.0027 11.1475 16.5294 10.0014 15.6849 9.15688C14.8404 8.31239 13.6943 7.83914 12.5 7.8418ZM9.75 12.3418C9.75 13.8606 10.9812 15.0918 12.5 15.0918C14.0188 15.0918 15.25 13.8606 15.25 12.3418C15.25 10.823 14.0188 9.5918 12.5 9.5918C10.9812 9.5918 9.75 10.823 9.75 12.3418Z" fill="#000B08"/>
</svg>
