<svg width="25" height="25" viewBox="0 0 25 25" fill="none" xmlns="http://www.w3.org/2000/svg">
<path fill-rule="evenodd" clip-rule="evenodd" d="M5 3.3418C4.17157 3.3418 3.5 4.01337 3.5 4.8418V19.8418C3.5 20.6702 4.17157 21.3418 5 21.3418H20C20.8284 21.3418 21.5 20.6702 21.5 19.8418V4.8418C21.5 4.01337 20.8284 3.3418 20 3.3418H5ZM9.02076 7.34452C9.02639 8.30077 8.31061 8.88999 7.46123 8.88577C6.66107 8.88155 5.96357 8.24452 5.96779 7.34593C5.97201 6.50077 6.63998 5.82155 7.50764 5.84124C8.38795 5.86093 9.02639 6.5064 9.02076 7.34452ZM12.7797 10.1036H10.2597H10.2583V18.6634H12.9217V18.4637C12.9217 18.0838 12.9214 17.7038 12.9211 17.3237C12.9203 16.3099 12.9194 15.295 12.9246 14.2815C12.926 14.0354 12.9372 13.7795 13.0005 13.5446C13.2381 12.6671 14.0271 12.1004 14.9074 12.2397C15.4727 12.3282 15.8467 12.6559 16.0042 13.1889C16.1013 13.5221 16.1449 13.8807 16.1491 14.2281C16.1605 15.2757 16.1589 16.3233 16.1573 17.371C16.1567 17.7408 16.1561 18.1108 16.1561 18.4806V18.662H18.828V18.4567C18.828 18.0047 18.8278 17.5528 18.8275 17.1009C18.827 15.9714 18.8264 14.8419 18.8294 13.712C18.8308 13.2015 18.776 12.6981 18.6508 12.2045C18.4638 11.4704 18.0771 10.8629 17.4485 10.4242C17.0027 10.112 16.5133 9.9109 15.9663 9.8884C15.904 9.88581 15.8412 9.88242 15.7781 9.87901C15.4984 9.86389 15.2141 9.84853 14.9467 9.90246C14.1817 10.0557 13.5096 10.4059 13.0019 11.0232C12.9429 11.094 12.8852 11.1659 12.7991 11.2732L12.7797 11.2975V10.1036ZM6.18164 18.6662H8.83242V10.1091H6.18164V18.6662Z" fill="#000B08"/>
</svg>
