<?xml version="1.0" encoding="UTF-8" standalone="no"?> <svg xmlns="http://www.w3.org/2000/svg" viewBox="0 0 64 64"><g id="Layer_38" data-name="Layer 38"><path d="M41.81,29.15a1,1,0,0,0-.91.05l-3.22,1.85a1,1,0,0,0-.36,1.37l2,3.49H38a1,1,0,0,0-1.45-1.35L32.42,38a1,1,0,0,0-.37.77,1,1,0,0,0,.37.78L36.59,43A1,1,0,0,0,38,41.62c1.49,0,4,.27,5.33-.6l.05,0,0,0a4.75,4.75,0,0,0,1.68-6.41L42.29,29.6A1,1,0,0,0,41.81,29.15ZM35.67,39.62l-1-.86,1-.85h4.82l1,1.68C41.33,39.61,35.67,39.62,35.67,39.62Zm7.75-1.36a2.75,2.75,0,0,1-.23.33l-3.64-6.3L41,31.43l2.37,4.12A2.71,2.71,0,0,1,43.42,38.26Z"/><path d="M28.94,36.25c-1.12-.08-3.15,0-4.27,0l.64-1.12a1,1,0,0,0,1.9-.58l-.89-5.33a1,1,0,0,0-.49-.7,1,1,0,0,0-.85-.07l-5.06,1.89a1,1,0,0,0,.44,1.94c-.69,1.31-2.25,3.36-2.14,4.92v.1a4.75,4.75,0,0,0,4.72,4.67h5.71a1,1,0,0,0,1-1V37.22A1,1,0,0,0,28.94,36.25Zm-8.35-.39,2.69-4.67,1.27-.47.22,1.33-2.41,4.17H20.41A3,3,0,0,1,20.59,35.86Zm7.1,4.08H22.94a2.74,2.74,0,0,1-2.53-1.72h7.28Z"/><path d="M37.34,28.53a1,1,0,0,0,1-.84s.88-5.31.88-5.33a1,1,0,0,0-1.89-.58c-.79-1.26-1.78-3.63-3.19-4.31a.09.09,0,0,0-.05,0l0,0a4.74,4.74,0,0,0-6.39,1.75l-2.86,4.95a1,1,0,0,0,.35,1.4l3.22,1.86A1,1,0,0,0,29.72,27l2-3.48.64,1.11a1,1,0,0,0-.44,1.94S37.2,28.6,37.34,28.53Zm-8.86-3.39L27,24.28l2.37-4.12a2.77,2.77,0,0,1,2.75-1.33Zm5.38-5.31c.08.11,2.92,5,2.92,5l-.23,1.34-1.26-.48-2.41-4.17Z"/><path d="M32,12.66A19.37,19.37,0,0,0,12.66,32c1.06,25.65,37.62,25.65,38.68,0A19.37,19.37,0,0,0,32,12.66Zm0,36.68A17.36,17.36,0,0,1,14.66,32c.95-23,33.73-23,34.68,0A17.36,17.36,0,0,1,32,49.34Z"/><path d="M60,27H54.53a22.73,22.73,0,0,0-3.07-7.41l3.87-3.87a1,1,0,0,0,0-1.41L49.68,8.67a1,1,0,0,0-1.41,0L44.4,12.54A22.53,22.53,0,0,0,37,9.48V4a1,1,0,0,0-1-1H28a1,1,0,0,0-1,1V9.48a22.53,22.53,0,0,0-7.41,3.06L15.73,8.67a1,1,0,0,0-1.41,0L8.67,14.32a1,1,0,0,0,0,1.41l3.87,3.87A22.73,22.73,0,0,0,9.47,27H4a1,1,0,0,0-1,1v8a1,1,0,0,0,1,1H9.48a22.58,22.58,0,0,0,3.06,7.41L8.67,48.27a1,1,0,0,0,0,1.41l5.65,5.65a1,1,0,0,0,1.41,0l3.87-3.87A22.58,22.58,0,0,0,27,54.52V60a1,1,0,0,0,1,1h8a1,1,0,0,0,1-1V54.52a22.58,22.58,0,0,0,7.41-3.06l3.87,3.87a1,1,0,0,0,1.41,0l5.65-5.65a1,1,0,0,0,0-1.41L51.46,44.4A22.58,22.58,0,0,0,54.52,37H60a1,1,0,0,0,1-1V28A1,1,0,0,0,60,27Zm-1,8H53.71a1.06,1.06,0,0,0-.76.38,1.08,1.08,0,0,0-.22.44,24.44,24.44,0,0,1-3.53,8.58,1.11,1.11,0,0,0,.27.85L53.21,49,49,53.21l-3.74-3.74a1.11,1.11,0,0,0-.85-.27,24.44,24.44,0,0,1-8.58,3.53,1.14,1.14,0,0,0-.44.22,1.06,1.06,0,0,0-.38.76V59H29V53.71a1.06,1.06,0,0,0-.38-.76,1.14,1.14,0,0,0-.44-.22c-3.14-.47-5.88-2-8.58-3.53a1.11,1.11,0,0,0-.85.27L15,53.21,10.79,49l3.74-3.74a1.11,1.11,0,0,0,.27-.85,24.44,24.44,0,0,1-3.53-8.58,1.08,1.08,0,0,0-.22-.44,1.06,1.06,0,0,0-.76-.38H5V29h5.29a1,1,0,0,0,.8-.43A24.26,24.26,0,0,1,14.64,20a1.26,1.26,0,0,0,.16-.42,1.11,1.11,0,0,0-.27-.85L10.79,15,15,10.79l3.74,3.74a1,1,0,0,0,.9.26,23.7,23.7,0,0,1,8.53-3.52,1.08,1.08,0,0,0,.44-.22,1.06,1.06,0,0,0,.38-.76V5h6v5.29a1.06,1.06,0,0,0,.38.76,1.08,1.08,0,0,0,.44.22,23.7,23.7,0,0,1,8.53,3.52,1,1,0,0,0,.9-.26L49,10.79,53.21,15l-3.74,3.74a1.11,1.11,0,0,0-.27.85,24.65,24.65,0,0,1,3.54,8.58,1.09,1.09,0,0,0,.32.57,1.19,1.19,0,0,0,.65.25H59Z"/></g></svg>