<?xml version="1.0" encoding="UTF-8" standalone="no"?> <svg xmlns="http://www.w3.org/2000/svg" viewBox="0 0 64 64"><g id="Layer_23" data-name="Layer 23"><path d="M58,41.82,52.12,31.68a1,1,0,0,0-1.4-.42l-6.58,3.8a1,1,0,0,0-.36,1.37l5,8.69H41.55l1.76-1.45h0A1,1,0,0,0,42,42.13l-8.53,7a1,1,0,0,0,0,1.54l8.53,7a1,1,0,0,0,1.27-1.54l-1.76-1.45h9a8.61,8.61,0,0,0,4.24-1.12l.07,0,.06,0A8.65,8.65,0,0,0,58,41.82Zm-7.44,10.9H39.12l-3.4-2.79,3.4-2.8H50l3,5.15A6.63,6.63,0,0,1,50.53,52.72Zm5.71-3.3a6.43,6.43,0,0,1-1.59,1.85L46,36.29l4.85-2.8,5.38,9.33A6.6,6.6,0,0,1,56.24,49.42Z"/><path d="M25.36,45.77c-2.4,0-7.71,0-10.16,0l3.62-6.28.38,2.25a1,1,0,0,0,2-.33c0-.11-1.81-10.89-1.81-10.89A1,1,0,0,0,18,29.74L7.68,33.62a1,1,0,0,0,.7,1.87l2.13-.8L6,42.46A8.54,8.54,0,0,0,4.88,46.7a.29.29,0,0,0,0,.13,8.65,8.65,0,0,0,8.59,8.53H25.18a1,1,0,0,0,1.06-1v-7.6A1,1,0,0,0,25.36,45.77ZM13.46,33.59,17.58,32l.73,4.35-5.42,9.38H7C7.07,45,13.46,33.59,13.46,33.59ZM24.24,53.36H13.48A6.63,6.63,0,0,1,7,47.76c4.89,0,12.41,0,17.29,0Z"/><path d="M42.57,27.88a1,1,0,0,0,1.34-.77c0-.05,1.81-10.9,1.81-10.9a1,1,0,0,0-2-.33l-.38,2.25-4.48-7.77A8.69,8.69,0,0,0,35.8,7.25l-.06,0-.06,0A8.66,8.66,0,0,0,24,10.36L18.14,20.5a1,1,0,0,0,.34,1.42l6.58,3.8a1,1,0,0,0,1.36-.37l5-8.69,3.62,6.27-2.13-.8A1,1,0,0,0,32.22,24ZM25.19,23.49l-4.85-2.8,5.38-9.33a6.64,6.64,0,0,1,8.11-2.85Zm7.41-8.83,3-5.15c.63.51,7.29,11.73,7.29,11.73l-.73,4.34L38,24Z"/></g></svg>