<svg width="25" height="25" viewBox="0 0 25 25" fill="none" xmlns="http://www.w3.org/2000/svg">
<path d="M22.093 7.30262C21.9791 6.88002 21.7565 6.49462 21.4473 6.18478C21.1382 5.87495 20.7533 5.65148 20.331 5.53662C18.765 5.10662 12.5 5.09962 12.5 5.09962C12.5 5.09962 6.23596 5.09262 4.66896 5.50362C4.24689 5.62376 3.86279 5.85039 3.55353 6.16175C3.24427 6.47311 3.02025 6.85874 2.90296 7.28162C2.48996 8.84762 2.48596 12.0956 2.48596 12.0956C2.48596 12.0956 2.48196 15.3596 2.89196 16.9096C3.12196 17.7666 3.79696 18.4436 4.65496 18.6746C6.23696 19.1046 12.485 19.1116 12.485 19.1116C12.485 19.1116 18.75 19.1186 20.316 18.7086C20.7385 18.594 21.1237 18.371 21.4336 18.0618C21.7435 17.7526 21.9673 17.3679 22.083 16.9456C22.497 15.3806 22.5 12.1336 22.5 12.1336C22.5 12.1336 22.52 8.86862 22.093 7.30262ZM10.496 15.1046L10.501 9.10462L15.708 12.1096L10.496 15.1046Z" fill="#000B08"/>
</svg>
